<?xml version="1.0" encoding="UTF-8" standalone="no"?>
<!-- Created with Inkscape (http://www.inkscape.org/) -->

<svg
   xmlns:dc="http://purl.org/dc/elements/1.1/"
   xmlns:cc="http://creativecommons.org/ns#"
   xmlns:rdf="http://www.w3.org/1999/02/22-rdf-syntax-ns#"
   xmlns:svg="http://www.w3.org/2000/svg"
   xmlns="http://www.w3.org/2000/svg"
   xmlns:sodipodi="http://sodipodi.sourceforge.net/DTD/sodipodi-0.dtd"
   xmlns:inkscape="http://www.inkscape.org/namespaces/inkscape"
   width="236.793mm"
   height="122.37988mm"
   viewBox="0 0 839.03033 433.62944"
   id="svg2"
   version="1.1"
   inkscape:version="0.91 r13725"
   sodipodi:docname="card-cover.svg"
   inkscape:export-filename="/home/saar/proj/boards/tap/docs/schematics.png"
   inkscape:export-xdpi="90.014938"
   inkscape:export-ydpi="90.014938">
  <defs
     id="defs4" />
  <sodipodi:namedview
     id="base"
     pagecolor="#ffffff"
     bordercolor="#666666"
     borderopacity="1.0"
     inkscape:pageopacity="0.0"
     inkscape:pageshadow="2"
     inkscape:zoom="1.4"
     inkscape:cx="379.44932"
     inkscape:cy="171.91805"
     inkscape:document-units="px"
     inkscape:current-layer="layer1"
     showgrid="false"
     inkscape:window-width="1885"
     inkscape:window-height="1056"
     inkscape:window-x="35"
     inkscape:window-y="24"
     inkscape:window-maximized="1"
     showguides="false"
     fit-margin-left="10"
     fit-margin-top="10"
     fit-margin-right="10"
     fit-margin-bottom="10"
     inkscape:snap-global="false">
    <sodipodi:guide
       position="-224.74628,886.10973"
       orientation="1,0"
       id="guide5095" />
  </sodipodi:namedview>
  <metadata
     id="metadata7">
    <rdf:RDF>
      <cc:Work
         rdf:about="">
        <dc:format>image/svg+xml</dc:format>
        <dc:type
           rdf:resource="http://purl.org/dc/dcmitype/StillImage" />
        <dc:title></dc:title>
      </cc:Work>
    </rdf:RDF>
  </metadata>
  <g
     inkscape:groupmode="layer"
     id="layer2"
     inkscape:label="cut-marks"
     style="display:inline"
     transform="translate(-512.15865,-312.22282)" />
  <g
     inkscape:label="Layer 1"
     inkscape:groupmode="layer"
     id="layer1"
     transform="translate(-423.74631,10.386045)"
     style="display:inline">
    <rect
       ry="0"
       y="45.971458"
       x="527.64526"
       height="320.6683"
       width="310.03839"
       id="rect12245"
       style="opacity:1;fill:none;fill-opacity:0.66666667;stroke:#ff0000;stroke-width:0.3553125;stroke-linecap:round;stroke-linejoin:round;stroke-miterlimit:4;stroke-dasharray:none;stroke-dashoffset:0;stroke-opacity:1" />
    <path
       style="opacity:1;fill:#0000ff;fill-opacity:1;stroke:#0000ff;stroke-width:0.35584915;stroke-linecap:round;stroke-linejoin:round;stroke-miterlimit:4;stroke-dasharray:2.13509481, 2.13509481;stroke-dashoffset:0;stroke-opacity:1"
       d="m 459.35984,102.66466 64.32354,0 m 0,207.28191 -64.32354,0"
       id="rect12247"
       inkscape:connector-curvature="0"
       sodipodi:nodetypes="cccc" />
    <text
       xml:space="preserve"
       style="font-style:normal;font-variant:normal;font-weight:normal;font-stretch:normal;font-size:27.1800251px;line-height:100%;font-family:GoodDog;-inkscape-font-specification:'GoodDog, Normal';text-align:center;letter-spacing:0px;word-spacing:0px;writing-mode:lr-tb;text-anchor:middle;fill:#000000;fill-opacity:1;stroke:none;stroke-width:1px;stroke-linecap:butt;stroke-linejoin:miter;stroke-opacity:1"
       x="682.31842"
       y="286.37744"
       id="text12249"
       sodipodi:linespacing="100%"><tspan
         sodipodi:role="line"
         x="682.31842"
         y="286.37744"
         id="tspan12251">http://boldport.com/tc</tspan></text>
    <path
       style="fill:#000000;fill-opacity:1;stroke:none;stroke-opacity:0.6"
       d="m 726.5818,227.32663 0,0.0215 c -0.4517,-0.0276 -0.90095,0.10583 -1.62305,0.38086 -1.7927,0.6824 -3.59179,2.98998 -3.59179,4.60742 0,1.44268 -1.13085,3.50954 -2.24805,4.10742 -1.3454,0.72002 -3.73234,0.60377 -5.02344,-0.24218 -1.5107,-0.98979 -2.54087,-3.46468 -1.92187,-4.6211 0.7505,-1.40233 2.08462,-1.06876 2.82422,0.70117 0.5553,1.32917 0.83458,1.53658 1.86718,1.41797 1.4265,-0.1642 1.80574,-1.47062 0.99024,-3.43945 -0.9084,-2.19311 -3.37128,-3.255 -5.92188,-2.55078 -1.63139,0.45048 -2.59333,1.60347 -3.14648,3.80078 l 0,5.98047 c 0.34807,-0.12188 0.69489,-0.20899 1.02344,-0.20899 1.8163,0 3.90665,1.00124 4.53125,2.16797 0.7067,1.32047 0.55262,3.5154 -0.26758,3.83008 -0.9617,0.36925 -2.09683,-0.40322 -2.26563,-1.53515 -0.1666,-1.11705 -1.63917,-1.66718 -2.51367,-0.94141 -0.23406,0.19425 -0.39742,0.43623 -0.50781,0.70508 l 0,1.79101 c 0.33765,1.1347 1.22653,2.30717 2.50586,2.96875 1.6854,0.8716 3.00046,0.81725 4.63086,-0.17773 1.4108,-0.8603 2.12562,-2.23389 2.57422,-4.94922 0.3679,-2.2267 2.35226,-3.85938 4.69336,-3.85938 1.4269,0 2.0539,0.28874 3.2832,1.51758 1.2212,1.22126 1.4902,1.79979 1.3789,2.95703 -0.1226,1.27411 -0.28485,1.43946 -1.44335,1.43946 -0.962,0 -1.35501,-0.23474 -1.47461,-0.87891 -0.3929,-2.11703 -2.38406,-2.69553 -3.18946,-0.92773 -0.6591,1.44639 0.54302,3.87006 2.41992,4.88086 2.9535,1.59056 6.46218,-0.43191 7.07618,-4.07422 0.4728,-2.8047 0.67771,-3.1993 2.09961,-4.06641 1.823,-1.11156 4.24677,-1.08926 5.70117,0.0547 1.3171,1.03608 2.09518,3.32511 1.51758,4.46289 -0.7293,1.43614 -2.98828,0.64576 -2.98828,-1.04492 0,-0.96721 -1.59344,-1.49123 -2.42774,-0.79883 -1.4814,1.22947 -0.38541,4.22943 1.99609,5.46094 1.6854,0.87159 2.9944,0.82266 4.625,-0.17188 1.4107,-0.86036 2.13334,-2.23389 2.58204,-4.94922 0.3678,-2.22669 2.3503,-3.86523 4.6914,-3.86523 1.4267,0 2.04805,0.29262 3.27735,1.52148 1.2211,1.22127 1.49801,1.79985 1.38671,2.95703 -0.1226,1.27418 -0.29277,1.43555 -1.45117,1.43555 -0.962,0 -1.34915,-0.22729 -1.46875,-0.87109 -0.3931,-2.11703 -2.38395,-2.70138 -3.18945,-0.9336 -0.3676,0.80691 -0.31768,1.37981 0.23242,2.53907 2.1945,4.62466 8.527,3.40805 9.2793,-1.78321 0.3814,-2.63183 0.81097,-3.40254 2.35937,-4.20312 1.7972,-0.92945 4.06293,-0.82618 5.42383,0.24414 2.0686,1.62717 2.28871,5.22851 0.32031,5.22851 -0.938,0 -1.63007,-0.72965 -1.85937,-1.96484 -0.3644,-1.96392 -2.99805,-1.04419 -2.99805,1.04688 0,2.16365 2.51241,4.42853 4.90821,4.42382 2.52599,-0.005 4.32438,-2.1122 4.92968,-5.77539 0.1689,-1.02221 0.69001,-1.92627 1.53711,-2.67968 0.045,-0.0416 0.07,-0.0577 0.1211,-0.10547 0.7111,-0.64363 1.80551,-0.99443 2.91211,-1.01953 0.17809,0.008 0.36587,0.0298 0.57617,0.0508 0.2186,0.0208 0.40458,0.0409 0.58007,0.0547 0.41301,0.0811 0.80677,0.2083 1.16407,0.39258 2.4651,1.27474 3.47399,4.95636 1.55859,5.69141 -0.9032,0.34641 -1.7557,-0.34063 -2.0957,-1.69531 -0.1781,-0.7092 -0.62677,-1.13148 -1.13867,-1.30274 -0.6826,-0.38522 -1.66018,-0.1953 -2.07618,0.58203 -0.6683,1.24875 0.17509,3.31518 1.61719,4.52149 0.3407,0.35956 0.69407,0.64491 1.01367,0.77343 0.5406,0.21757 1.64192,0.40859 2.44922,0.42383 1.8588,0.0343 4.44727,-2.35445 4.44727,-4.10547 0,-3.10938 2.29214,-5.50586 5.27344,-5.50586 2.8725,0 5.63716,4.52699 3.73046,6.10938 -0.847,0.70283 -2.32822,-0.0954 -2.51562,-1.35547 -0.1987,-1.33584 -1.40892,-2.01151 -2.29102,-1.2793 -1.4113,1.17128 -0.58002,4.2118 1.48828,5.4336 3.3109,1.95589 7.45508,-0.53173 7.45508,-4.47461 0,-1.80853 1.85812,-3.89648 3.79492,-4.25977 2.9956,-0.56185 6.30736,2.28428 5.66016,4.86328 -0.5022,2.00071 -2.52375,1.73444 -3.06055,-0.40429 -0.3147,-1.25348 -1.35328,-1.72072 -2.48828,-1.11328 -1.0124,0.54176 -1.07464,1.76515 -0.18554,3.48437 1.5831,3.06152 5.04568,3.58708 7.49218,1.14063 0.9394,-0.93935 1.48829,-1.91146 1.48829,-2.63868 0,-3.10939 2.29994,-5.50586 5.28124,-5.50586 2.9282,0 5.79791,4.84585 3.59961,6.07618 -0.9846,0.55076 -2.30859,-0.14951 -2.30859,-1.21875 0,-1.12086 -1.09712,-1.92253 -2.16992,-1.58203 -0.6812,0.21613 -0.89649,0.65909 -0.89649,1.83398 0,2.05384 2.3537,4.5293 4.3086,4.5293 3.0739,0 5.32658,-2.19489 5.33008,-5.19336 0,-2.00236 2.39407,-4.44532 4.35547,-4.44532 2.06709,0 3.94978,1.17265 4.67578,2.91016 0.7114,1.70261 0.49379,2.9974 -0.56641,3.4043 -0.8803,0.33809 -1.73536,-0.35437 -2.06836,-1.68164 -0.3146,-1.25348 -1.35113,-1.72072 -2.48633,-1.11328 -1.0845,0.58057 -1.07024,2.01489 0.0352,3.82812 0.9501,1.55837 2.36706,2.29102 4.44726,2.29102 1.7244,0 4.3086,-2.47907 4.3086,-4.13282 0,-2.30735 1.26912,-4.21844 3.14062,-5.05273 l 0,-4.88477 c -0.2537,1.07777 -0.74515,2.09011 -1.40625,2.83008 -1.0352,1.15869 -1.52762,1.36327 -3.26172,1.36328 -1.7543,0 -2.22281,-0.19894 -3.32031,-1.42773 -1.3819,-1.54674 -1.69318,-3.59319 -0.67578,-4.4375 0.8419,-0.69882 1.98343,-0.14543 2.29883,1.11133 0.5838,2.32556 3.22851,2.2137 3.22851,-0.13672 0,-5.53345 -8.54737,-6.13754 -9.42187,-0.66602 -0.7033,4.40172 -3.03936,6.38111 -6.35156,5.38868 -2.9125,-0.87257 -4.6219,-4.6714 -2.5918,-5.75782 1.0896,-0.58334 1.94268,-0.028 2.33008,1.51563 0.3192,1.27209 1.35521,1.71642 2.53711,1.08398 1.3111,-0.7018 0.81009,-3.30224 -0.94532,-4.88476 -2.5746,-2.32093 -6.95588,-1.11175 -7.86718,2.16992 -0.2543,0.91601 -0.45759,2.00404 -0.45899,2.42187 0,0.4178 -0.58411,1.40453 -1.28711,2.19141 -1.0976,1.22825 -1.56426,1.42773 -3.31836,1.42773 -1.7541,0 -2.22671,-0.19894 -3.32421,-1.42773 -1.396,-1.5624 -1.69084,-3.59563 -0.64844,-4.46094 0.8471,-0.70283 2.33018,0.0973 2.51758,1.35742 0.3332,2.23974 2.98828,1.95657 2.98828,-0.31836 0,-5.56914 -8.53056,-6.20806 -9.43946,-0.70703 -0.6053,3.6632 -2.40388,5.77273 -4.92968,5.77735 -3.3682,0.006 -6.50216,-4.80837 -4.00196,-6.14649 1.0897,-0.58334 1.94659,-0.028 2.33399,1.51563 0.4404,1.75419 2.58489,1.9236 3.11719,0.24609 0.7857,-2.47534 -1.76372,-5.25195 -4.82032,-5.25195 -2.5553,0 -4.42141,1.78374 -4.84961,4.63867 -0.573,3.82102 -3.74474,5.90351 -6.68164,4.38477 -1.6876,-0.8727 -2.70898,-2.30794 -2.70898,-3.8086 0,-2.41993 2.20718,-2.68032 3.01758,-0.35547 0.8562,2.45616 3.12602,1.98833 3.10742,-0.64062 -0.021,-2.94076 -3.14654,-4.74897 -5.86914,-4.08008 -0.415,-0.2002 -1.12265,0.17712 -2.18555,1.12695 -0.9971,0.89108 -1.41717,1.71956 -1.60547,3.17774 -0.3252,2.51753 -1.55633,4.26574 -3.33203,4.73828 -2.6559,0.7067 -5.2612,-0.68154 -5.9375,-3.16797 -0.7976,-2.93159 1.62325,-4.08421 2.77735,-1.32227 0.55529,1.32919 0.83448,1.54235 1.86718,1.42383 0.889,-0.10187 1.25298,-0.41453 1.35938,-1.16601 0.49,-3.46042 -3.48056,-6.17336 -6.75586,-4.61914 -1.705,0.8091 -2.55787,2.16676 -2.95117,4.71289 -0.6203,4.01653 -5.0758,5.76342 -7.9375,3.11132 -1.9773,-1.83262 -1.96362,-4.80468 0.0215,-4.80468 0.5116,0 1.06732,0.53572 1.44922,1.40234 0.763,1.73316 1.40654,2.01237 2.64844,1.14258 0.7414,-0.51961 0.89848,-0.93733 0.67968,-1.82813 -1.0434,-4.24584 -5.6077,-5.60024 -8.5,-2.52148 -0.562,0.59788 -1.10505,1.95157 -1.31445,3.27734 -0.4202,2.65741 -1.34723,3.83805 -3.49023,4.42969 -1.236,0.34157 -1.88653,0.27506 -3.11133,-0.32422 -1.9554,-0.95673 -3.3723,-3.56412 -2.6582,-4.89844 0.7572,-1.41481 2.15374,-1.12629 2.87304,0.59571 0.3431,0.82123 0.87434,1.58522 1.18164,1.69531 0.9776,0.34985 2.08985,-0.55308 2.08985,-1.69336 0,-3.19424 -3.09382,-5.40454 -6.32032,-4.51367 -1.8738,0.51752 -2.85875,1.8761 -3.38085,4.66992 -0.6311,3.37875 -3.31487,5.21666 -6.41407,4.39258 -2.449,-0.65122 -4.05264,-4.31898 -2.46484,-5.63672 0.8921,-0.74041 2.04016,-0.0772 2.38476,1.38281 0.1907,0.8078 0.53659,1.05663 1.49219,1.05664 1.8595,0 2.30514,-1.05844 1.30274,-3.11132 -0.5476,-1.12176 -1.40836,-1.98739 -2.50586,-2.52344 -0.7497,-0.36576 -1.20455,-0.55364 -1.65625,-0.58203 l -0.004,0 z m -155.57422,0.13281 c -2.07706,0.1343 -3.95829,1.82537 -4.48242,4.63086 -0.6808,3.64341 -2.15976,5.05273 -5.28906,5.05273 -1.9966,0 -4.41106,-2.55642 -4.22656,-4.47461 0.12249,-1.27571 0.28577,-1.43359 1.45117,-1.43359 1.0162,0 1.34021,0.21165 1.44531,0.94922 0.1819,1.27688 1.16444,2.02868 2.21484,1.69531 1.1667,-0.36992 1.40222,-1.19314 0.88282,-3.07422 -0.4994,-1.80864 -2.50248,-3.29383 -4.45508,-3.29687 -2.8281,-0.003 -5.12696,2.46911 -5.12696,5.50976 0,1.68258 -2.58652,4.125 -4.36132,4.125 -2.0671,0 -3.94588,-1.16671 -4.67188,-2.90429 -0.8249,-1.9746 -0.44808,-3.22657 0.97852,-3.22657 0.8122,0 1.20381,0.32808 1.54101,1.29493 0.8597,2.4664 3.44922,2.08402 3.44922,-0.51172 0,-0.90847 -0.47253,-1.77546 -1.54883,-2.85157 -1.4325,-1.43249 -1.6905,-1.52922 -3.5957,-1.31445 -1.5804,0.17804 -2.33974,0.54612 -3.27734,1.5957 -0.6705,0.75031 -1.2168,1.8586 -1.2168,2.46485 0,3.37079 -2.75214,5.85852 -5.83984,5.27929 -2.0827,-0.39068 -3.89124,-2.5217 -3.71094,-4.37304 0.1162,-1.19085 0.29605,-1.36524 1.43945,-1.36524 0.9619,0 1.35306,0.23314 1.47266,0.87696 0.3931,2.11709 2.38385,2.69944 3.18945,0.93164 0.3712,-0.81506 0.30744,-1.39374 -0.28906,-2.65039 -2.2255,-4.68977 -8.62134,-3.19518 -9.33594,1.71679 l 0,5.5586 c 1.9577,-0.78173 4.34784,-0.33189 5.68164,1.85547 0.9914,1.62576 1.05378,3.02399 0.17188,3.75586 -0.9188,0.76256 -1.9421,0.23527 -2.4668,-1.26954 -0.5721,-1.64102 -1.40919,-1.95667 -2.61719,-0.97851 -0.8736,0.70734 -0.91103,0.92042 -0.42773,2.38476 0.7377,2.23522 2.33025,3.3711 4.72265,3.3711 2.6216,0 4.3018,-1.6274 4.7461,-4.58985 0.2043,-1.36258 0.7422,-2.57961 1.5332,-3.46484 1.0277,-1.15017 1.53595,-1.36523 3.21875,-1.36523 1.5525,0 2.24622,0.24588 3.10742,1.10742 1.5222,1.52221 2.12421,3.72345 1.25782,4.58984 -1.04891,1.04904 -1.90693,0.76856 -2.57813,-0.83789 -0.6993,-1.6737 -1.37861,-2.07679 -2.50781,-1.49609 -1.5865,0.81596 -0.40562,4.60519 1.73828,5.58203 0.5739,0.26119 1.7397,0.47461 2.5957,0.47461 2.1421,0 4.53491,-2.34759 4.53711,-4.44922 0,-3.45149 3.17407,-5.80118 6.38867,-4.74024 2.5459,0.84015 4.16191,4.378 2.59571,5.67774 -0.9171,0.76125 -1.93904,0.23928 -2.46094,-1.25781 -0.5472,-1.56994 -1.84311,-1.98993 -2.82031,-0.91016 -0.6132,0.67756 -0.64279,1.0414 -0.20899,2.35547 0.7215,2.1861 2.32342,3.32422 4.69922,3.32422 2.5465,0 4.26705,-1.60425 4.71875,-4.4043 0.3971,-2.46204 1.18962,-3.71282 2.91602,-4.60547 2.6072,-1.3483 5.60478,0.1476 6.49218,3.24219 0.3015,1.05055 0.23759,1.54563 -0.26172,2.04492 -1.0874,1.08742 -2.03626,0.66055 -2.75976,-1.24219 -0.3775,-0.99278 -0.69167,-1.2022 -1.66797,-1.08984 -0.8789,0.10112 -1.24351,0.42052 -1.34961,1.16992 -0.3672,2.59319 1.96235,4.88477 4.96484,4.88477 2.20631,0 4.59526,-2.31411 4.59766,-4.44922 0,-1.73329 0.87174,-3.2303 2.11914,-4.13281 2.6367,-1.59486 6.7006,-0.0206 7.3418,2.89453 0.6067,2.76182 -1.97425,3.63492 -3.06055,1.03515 -0.5056,-1.21017 -0.86481,-1.52904 -1.59961,-1.41992 -2.1115,0.31384 -2.18112,2.82088 -0.13672,4.86524 0.6257,0.62558 1.56429,1.22224 2.08789,1.32422 0.5237,0.10187 1.10457,0.20962 1.29297,0.24218 0.828,0.14412 3.36603,-1.267 3.95313,-2.19922 0.3539,-0.56255 0.7776,-1.95379 0.9375,-3.08789 0.2183,-1.55057 0.61593,-2.33825 1.61133,-3.17578 3.0085,-2.53153 7.83203,-0.66745 7.83203,3.02735 0,2.53955 -2.48932,2.70075 -3.07422,0.19921 -0.1712,-0.73229 -0.5996,-1.09697 -1.4043,-1.1914 -1.5691,-0.18429 -2.15765,0.97279 -1.49805,2.94336 1.5822,4.72525 8.47571,4.12731 9.28711,-0.80469 0.648,-3.93892 1.88827,-5.28711 4.85547,-5.28711 2.2303,0 4.32527,1.55132 4.75977,3.5293 0.6014,2.73833 -1.96612,3.643 -3.04102,1.07031 -0.4051,-0.96933 -0.93857,-1.53125 -1.45117,-1.53125 -3.8236,0 -1.07378,6.18366 2.79492,6.28516 3.0609,0.0803 4.59733,-1.44155 5.20313,-5.15039 0.4246,-2.59853 2.262,-4.20313 4.8125,-4.20313 1.6787,0 2.27115,0.22989 3.34765,1.30664 1.068,1.06807 1.28143,1.60732 1.16993,2.95508 -0.1187,1.43109 -0.27842,1.65039 -1.22852,1.65039 -0.815,0 -1.25636,-0.36387 -1.72266,-1.42383 -0.4436,-1.00785 -0.92246,-1.41992 -1.63085,-1.41992 -1.4013,0 -1.92115,1.20001 -1.31055,3.02344 1.1172,3.33641 5.21678,4.41911 7.70508,2.03515 0.7903,-0.75737 1.43038,-1.90704 1.58398,-2.83984 0.6479,-3.93892 1.89012,-5.28711 4.85742,-5.28711 2.2302,0 4.32732,1.55132 4.76172,3.5293 0.6015,2.73833 -1.97383,3.64292 -3.04883,1.07031 -0.6651,-1.59168 -1.79646,-2.0063 -2.78906,-1.01367 -0.8947,0.8946 -0.58055,2.45068 0.81055,4.03516 1.6205,1.84564 3.29544,2.28602 5.37304,1.41796 1.9049,-0.79596 2.7478,-2.07299 3.125,-4.75 0.3882,-2.7542 2.12311,-4.28906 4.84961,-4.28906 2.5768,0 4.11958,1.32137 4.45508,3.82227 0.2024,1.51014 0.10411,1.91049 -0.52539,2.15234 -1.0295,0.3949 -2.10656,-0.33565 -2.41015,-1.63477 -0.1712,-0.73229 -0.5997,-1.09697 -1.4043,-1.1914 -1.5693,-0.18429 -2.15785,0.97273 -1.49805,2.94336 1.1171,3.33641 5.21297,4.41911 7.70117,2.03515 0.7905,-0.75737 1.43254,-1.90704 1.58594,-2.83984 0.48806,-2.96625 1.31412,-4.46301 2.95898,-5.02148 l 0,-3.79493 c -0.70206,1.6839 -2.56929,3.09571 -4.43554,3.09571 -3.0774,0 -5.99048,-3.6323 -4.42578,-5.51758 0.8008,-0.96492 2.29699,-0.58258 2.58789,0.6582 0.5205,2.22107 3.10299,2.32052 3.42969,0.13281 0.3857,-2.58266 -2.92964,-5.26717 -5.83204,-4.72265 -2.256,0.42327 -4.16406,3.0752 -4.16406,5.78906 0,0.63183 -0.54184,1.6433 -1.27734,2.37891 -1.0358,1.03586 -1.6554,1.28125 -3.25,1.28125 -2.5775,0 -4.66992,-1.88642 -4.66992,-4.21094 0,-2.48006 2.49657,-2.58451 3.07617,-0.12891 0.1934,0.81901 0.53872,1.05469 1.54492,1.05469 1.146,0 1.30609,-0.16911 1.42969,-1.45703 0.1757,-1.83111 -0.83184,-3.40228 -2.77344,-4.32812 -3.1262,-1.49082 -6.77424,0.99551 -6.77734,4.62109 0,2.20889 -2.3923,4.45312 -4.7461,4.45312 -3.0774,0 -5.99038,-3.63632 -4.42578,-5.52148 0.8008,-0.96492 2.3008,-0.5826 2.5918,0.6582 0.5204,2.22115 3.09517,2.32045 3.42187,0.13281 0.3857,-2.58272 -2.92377,-5.26717 -5.82617,-4.72265 -2.2562,0.42325 -4.16211,3.0752 -4.16211,5.78906 0,0.63183 -0.5437,1.63948 -1.2793,2.375 -2.7624,2.76252 -7.91992,0.90961 -7.91992,-2.84765 0,-2.54818 2.48212,-2.71532 3.07422,-0.20704 0.1933,0.81908 0.54068,1.05469 1.54688,1.05469 1.1361,0 1.30863,-0.17421 1.42773,-1.40625 0.075,-0.77193 -0.0841,-1.81641 -0.35547,-2.32226 -0.6308,-1.17902 -2.99207,-2.62145 -4.29297,-2.62305 -2.607,-0.005 -4.90234,2.46722 -4.90234,5.27539 0,2.11763 -2.43859,4.36133 -4.74219,4.36133 -3.0772,0 -5.99028,-3.63243 -4.42578,-5.51758 0.8008,-0.96492 2.29504,-0.5826 2.58594,0.6582 0.3362,1.43477 1.52539,2.15028 2.52539,1.52344 1.838,-1.15211 0.65007,-4.62752 -1.95703,-5.7168 -3.3371,-1.39431 -6.35527,0.58086 -6.95117,4.55469 -0.4276,2.85152 -2.17897,4.49805 -4.79297,4.49805 -1.8472,0 -3.47171,-1.05877 -4.19141,-2.53516 -0.086,-0.52446 -0.16557,-1.0574 -0.23437,-1.45117 -0.056,-0.32357 -0.0829,-0.61443 -0.0859,-0.87305 0.4007,-1.82023 2.4806,-1.69761 3.0039,0.51953 0.1934,0.81908 0.53677,1.05469 1.54297,1.05469 1.1363,0 1.31059,-0.17417 1.42969,-1.40625 0.075,-0.77193 -0.087,-1.81641 -0.35742,-2.32226 -0.6309,-1.17902 -2.99022,-2.62145 -4.29102,-2.62305 -0.2417,-3.5e-4 -0.47719,0.0286 -0.71289,0.0703 -0.026,-0.0343 -0.0578,-0.0566 -0.0898,-0.0566 -0.073,0 -0.33116,0.10045 -0.66016,0.24805 -0.2907,0.10596 -0.57595,0.24222 -0.84375,0.40429 -0.023,0.0135 -0.0394,0.0216 -0.0644,0.0352 -0.4746,0.24526 -0.91738,0.6561 -1.30078,1.16406 -0.6666,0.81269 -1.11559,1.81888 -1.21289,2.89063 -0.037,0.25562 -0.0566,0.51525 -0.0566,0.76562 0,0.0276 -0.0117,0.0606 -0.0117,0.0937 -0.065,0.36723 -0.20725,0.77499 -0.40235,1.17188 -0.2545,0.44479 -0.62348,0.9163 -1.08398,1.37695 -1.7506,1.75049 -3.64298,1.95652 -5.80078,0.64063 -1.6633,-1.01424 -2.72737,-3.63772 -1.88867,-4.64844 0.9015,-1.08627 2.20014,-0.76612 2.74414,0.67578 0.9241,2.44819 3.37109,2.0624 3.37109,-0.5332 0,-0.89932 -0.46724,-1.77392 -1.49414,-2.80078 -1.13595,-1.13597 -2.45298,-1.61574 -3.69922,-1.53516 z"
       id="path12298"
       inkscape:connector-curvature="0" />
    <text
       sodipodi:linespacing="100%"
       id="text12253"
       y="157.06511"
       x="682.60822"
       style="font-style:normal;font-variant:normal;font-weight:normal;font-stretch:normal;font-size:55.58301163px;line-height:100%;font-family:GoodDog;-inkscape-font-specification:'GoodDog, Normal';text-align:center;letter-spacing:0px;word-spacing:0px;writing-mode:lr-tb;text-anchor:middle;fill:#000000;fill-opacity:1;stroke:none;stroke-width:1px;stroke-linecap:butt;stroke-linejoin:miter;stroke-opacity:1"
       xml:space="preserve"><tspan
         id="tspan12255"
         y="157.06511"
         x="682.60822"
         sodipodi:role="line">The Cuttle</tspan></text>
    <text
       xml:space="preserve"
       style="font-style:normal;font-variant:normal;font-weight:normal;font-stretch:normal;font-size:22.83138084px;line-height:69.99999881%;font-family:GoodDog;-inkscape-font-specification:'GoodDog, Normal';text-align:center;letter-spacing:0px;word-spacing:0px;writing-mode:lr-tb;text-anchor:middle;fill:#000000;fill-opacity:1;stroke:none;stroke-width:1px;stroke-linecap:butt;stroke-linejoin:miter;stroke-opacity:1"
       x="682.48901"
       y="183.18382"
       id="text12257"
       sodipodi:linespacing="69.999999%"><tspan
         sodipodi:role="line"
         x="682.48901"
         y="183.18382"
         id="tspan12259">a bare-bones</tspan><tspan
         id="tspan12261"
         sodipodi:role="line"
         x="682.48901"
         y="199.16579">Arduino-compatible kit</tspan></text>
    <path
       inkscape:connector-curvature="0"
       id="path12263"
       d="m 664.9984,213.68716 c -2.4467,0 -4.4161,1.96933 -4.4161,4.41602 l 0,35.33203 c 0,2.44668 1.9694,4.41601 4.4161,4.41601 l 35.332,0 c 2.4467,0 4.416,-1.96933 4.416,-4.41601 l 0,-35.33203 c 0,-2.44669 -1.9693,-4.41602 -4.416,-4.41602 l -35.332,0 z m 17.8652,5.83008 0,0 c 3.4235,0 6.0975,0.69582 8.0253,2.0918 1.9278,1.39597 2.8926,3.40939 2.8926,6.03515 0,1.69511 -0.4327,3.19007 -1.2969,4.48633 -0.8309,1.26302 -2.0276,2.26096 -3.5898,2.99219 2.1605,0.5318 3.7392,1.41278 4.7363,2.64258 0.9971,1.19655 1.4961,2.79093 1.4961,4.78515 0,6.31516 -5.1182,9.47266 -15.3554,9.47266 -3.3237,0 -6.4989,-0.10137 -9.5235,-0.30078 l -0.049,0 0.3105,-6.62305 7.377,-0.11523 0.039,1.25781 c 1.7284,0.133 2.8414,0.19726 3.3399,0.19726 1.7949,0 3.1904,-0.36447 4.1875,-1.0957 0.9971,-0.73123 1.4961,-1.77789 1.4961,-3.14062 0,-1.03037 -0.3158,-1.84704 -0.9473,-2.44532 -0.6316,-0.63151 -1.6119,-1.09539 -2.9414,-1.39453 l -5.2344,0.0996 -0.016,0.85938 -7.2187,0.11328 -0.1504,-7.58399 7.5156,-0.11718 -0.031,1.19336 4.2852,0.19921 c 1.1301,-0.33238 1.9623,-0.84693 2.4941,-1.54492 0.565,-0.69799 0.8477,-1.64524 0.8477,-2.84179 0,-1.36275 -0.4327,-2.30804 -1.2969,-2.83985 -0.8309,-0.5318 -2.3434,-0.79883 -4.5371,-0.79883 l -1.5937,0 -0.025,0.96875 -7.7696,0.11914 -0.1308,-6.62109 12.6621,-0.0508 z m -4.7949,7.87695 -0.078,3.01563 -7.5723,0.11718 -0.059,-3.01367 7.709,-0.11914 z m -0.2774,13.25195 -0.012,0.75782 0.066,2.25586 -7.2715,0.11328 0.074,-1.57031 -0.029,-1.44336 7.1718,-0.11329 z"
       style="opacity:1;fill:#000000;fill-opacity:1;stroke:none;stroke-width:0.53149605;stroke-linecap:round;stroke-linejoin:round;stroke-miterlimit:4;stroke-dasharray:none;stroke-opacity:1" />
    <g
       id="g12311"
       style="fill:#000000">
      <path
         style="fill:#000000;fill-opacity:1;stroke:none;stroke-opacity:0.6"
         d="m 726.5818,53.943301 0,0.0195 c -0.4517,-0.0276 -0.9009,0.10777 -1.623,0.38281 -1.7927,0.68239 -3.5918,2.98997 -3.5918,4.607416 0,1.442672 -1.1309,3.507582 -2.2481,4.105462 -1.3454,0.72003 -3.7323,0.60572 -5.0234,-0.24023 -1.5107,-0.9898 -2.5409,-3.464686 -1.9219,-4.621088 0.7505,-1.40235 2.0847,-1.06877 2.8243,0.701166 0.5553,1.329162 0.8345,1.536572 1.8671,1.417962 1.4265,-0.16421 1.8058,-1.472572 0.9903,-3.441388 -0.9084,-2.19311 -3.3713,-3.25499 -5.9219,-2.55079 -1.8265,0.50437 -2.8168,1.88129 -3.3301,4.628906 -0.6478,3.467062 -3.2201,5.302962 -6.2558,4.464842 -2.5804,-0.71256 -4.2847,-4.307652 -2.6739,-5.644528 0.9305,-0.77214 1.9429,-0.23077 2.4864,1.328126 0.3792,1.087672 0.6824,1.321012 1.58,1.212882 1.749,-0.21063 2.1286,-1.262892 1.1602,-3.246078 -1.1261,-2.30672 -3.5092,-3.51232 -5.5879,-2.82618 -2.1721,0.71676 -3.3345,2.20261 -3.7422,4.781246 -0.4201,2.657402 -1.351,3.838052 -3.4941,4.429682 -1.236,0.34156 -1.8885,0.27505 -3.1133,-0.32422 -1.9555,-0.95674 -3.3645,-3.564116 -2.6504,-4.898418 0.7572,-1.41485 2.1496,-1.12366 2.8692,0.597646 0.6993,1.673712 1.3747,2.076862 2.5039,1.496082 1.5283,-0.785966 0.5199,-4.505678 -1.4922,-5.498028 -3.971,-1.95853 -6.7912,-0.1819 -7.584,4.779292 -0.5396,3.376926 -4.5825,5.049936 -7.5352,3.115226 -0.1296,-0.0845 -0.206,-0.12589 -0.3047,-0.18555 -1.444,-1.32295 -2.0488,-3.335442 -1.2461,-4.302718 0.7461,-0.89895 2.3292,-0.5961 2.5274,0.48047 0.3538,1.924158 2.0479,2.622538 3.1465,1.298808 0.7823,-0.942602 -0.1576,-3.936398 -1.5156,-4.826158 -3.8491,-2.5221 -7.8891,0.0728 -8.0977,5.201158 -0.018,0.43991 -0.6102,1.37773 -1.3145,2.08204 -2.8684,2.86835 -7.9218,0.7553 -7.9218,-3.312492 0,-2.142926 2.5641,-1.933816 3.08,0.251946 0.1933,0.819006 0.5368,1.054686 1.543,1.054686 1.1705,0 1.3061,-0.14949 1.4258,-1.580072 0.1,-1.191526 -0.1518,-1.921116 -1.0137,-2.945306 -2.9422,-3.49664 -8.5304,-1.29441 -8.5351,3.363272 0,2.208896 -2.3884,4.449216 -4.7422,4.449216 -3.0774,0 -5.9905,-3.63229 -4.4258,-5.517568 0.8008,-0.96492 2.297,-0.58258 2.5879,0.658196 0.5205,2.221072 3.103,2.318572 3.4297,0.13086 0.3857,-2.582646 -2.9297,-5.265226 -5.8321,-4.720696 -2.256,0.42327 -4.164,3.0752 -4.164,5.789048 0,0.63183 -0.5419,1.6433 -1.2774,2.37891 -1.0358,1.03586 -1.6554,1.28125 -3.25,1.28125 -2.5775,0 -4.6699,-1.88643 -4.6699,-4.210936 0,-2.480052 2.4966,-2.586452 3.0762,-0.13086 0.1934,0.819006 0.5387,1.054686 1.5449,1.054686 1.146,0 1.3061,-0.16716 1.4297,-1.455072 0.1757,-1.831106 -0.8318,-3.402286 -2.7734,-4.328126 -3.1262,-1.49081 -6.7743,0.99357 -6.7774,4.619132 0,2.208886 -2.3923,4.453126 -4.7461,4.453126 -3.0774,0 -5.9904,-3.63436 -4.4258,-5.519518 0.8008,-0.96492 2.3008,-0.5826 2.5918,0.658196 0.5204,2.221152 3.0952,2.318502 3.4219,0.13086 0.3857,-2.582716 -2.9238,-5.265226 -5.8262,-4.720696 -2.2562,0.42325 -4.1621,3.0752 -4.1621,5.789048 0,0.63183 -0.5437,1.63752 -1.2793,2.37305 -2.7624,2.76251 -7.9199,0.9096 -7.9199,-2.847656 0,-2.548162 2.4821,-2.715292 3.0742,-0.20703 0.1933,0.819086 0.5407,1.054686 1.5469,1.054686 1.1361,0 1.3086,-0.17422 1.4277,-1.406242 0.075,-0.771926 -0.084,-1.814456 -0.3554,-2.320316 -0.6308,-1.17901 -2.9921,-2.62144 -4.293,-2.62304 -2.607,-0.005 -4.9023,2.46722 -4.9023,5.275382 0,2.117626 -2.4386,4.361326 -4.7422,4.361326 -3.0772,0 -5.9903,-3.63244 -4.4258,-5.517568 0.8008,-0.96493 2.295,-0.58261 2.5859,0.658196 0.3362,1.434762 1.5254,2.150262 2.5254,1.523432 1.838,-1.152116 0.6501,-4.627508 -1.957,-5.716788 -3.3371,-1.39431 -6.3553,0.58086 -6.9512,4.554682 -0.4276,2.851516 -2.179,4.498046 -4.793,4.498046 -1.8472,0 -3.4717,-1.05877 -4.1914,-2.53516 -0.086,-0.52446 -0.1655,-1.0574 -0.2343,-1.45117 -0.056,-0.323576 -0.083,-0.614432 -0.086,-0.873042 0.4007,-1.820226 2.4806,-1.699546 3.0039,0.517576 0.1934,0.819086 0.5368,1.054686 1.543,1.054686 1.1363,0 1.3106,-0.17418 1.4297,-1.406242 0.075,-0.771926 -0.087,-1.814456 -0.3574,-2.320316 -0.6309,-1.17901 -2.9902,-2.62144 -4.291,-2.62304 -0.2417,-3.5e-4 -0.4772,0.0286 -0.7129,0.0703 -0.026,-0.0343 -0.058,-0.0586 -0.09,-0.0586 -0.073,0 -0.3311,0.1024 -0.6601,0.25 -0.2907,0.10596 -0.576,0.24223 -0.8438,0.40429 -0.023,0.0135 -0.039,0.0216 -0.064,0.0352 -0.4746,0.24526 -0.9174,0.65609 -1.3008,1.16406 -0.6666,0.81269 -1.1156,1.81692 -1.2129,2.888666 -0.037,0.25562 -0.057,0.515256 -0.057,0.765626 0,0.0276 -0.012,0.0624 -0.012,0.0957 -0.065,0.36722 -0.2072,0.77499 -0.4023,1.17188 -0.2545,0.44479 -0.6235,0.91434 -1.084,1.375 -1.7506,1.75048 -3.643,1.95846 -5.8008,0.64258 -1.6633,-1.01426 -2.7274,-3.637716 -1.8887,-4.648432 0.9015,-1.08627 2.2002,-0.76612 2.7442,0.675776 0.9241,2.448186 3.3711,2.062396 3.3711,-0.533196 0,-0.89931 -0.4673,-1.77393 -1.4942,-2.80079 -3.0292,-3.02924 -7.343,-1.39502 -8.1816,3.09375 -0.6808,3.643412 -2.1598,5.054682 -5.2891,5.054682 -1.9966,0 -4.411,-2.55836 -4.2265,-4.476556 0.1225,-1.275706 0.2857,-1.433586 1.4511,-1.433586 1.0162,0 1.3403,0.21361 1.4454,0.951166 0.1819,1.276896 1.1644,2.028666 2.2148,1.695306 1.1667,-0.36992 1.4022,-1.193136 0.8828,-3.074212 -0.4994,-1.80864 -2.5025,-3.29382 -4.4551,-3.29687 -2.8281,-0.003 -5.1269,2.46715 -5.1269,5.507806 0,1.682566 -2.5865,4.126946 -4.3613,4.126946 -2.0671,0 -3.9459,-1.16672 -4.6719,-2.90429 -0.8249,-1.974606 -0.4481,-3.226562 0.9785,-3.226562 0.8122,0 1.2038,0.32612 1.541,1.292966 0.8597,2.466396 3.4492,2.085976 3.4492,-0.509756 0,-0.90847 -0.4725,-1.77741 -1.5488,-2.85352 -1.4325,-1.43248 -1.6905,-1.52923 -3.5957,-1.31445 -1.5804,0.17804 -2.3397,0.54613 -3.2773,1.5957 -0.6705,0.7503 -1.2168,1.86055 -1.2168,2.4668 0,3.370782 -2.7522,5.858522 -5.8399,5.279282 -2.0827,-0.39068 -3.8912,-2.52365 -3.7109,-4.374996 0.1162,-1.190836 0.296,-1.363276 1.4394,-1.363276 0.9619,0 1.3531,0.23119 1.4727,0.874996 0.3931,2.117096 2.3838,2.701386 3.1894,0.9336 0.3712,-0.81506 0.3075,-1.393736 -0.289,-2.650386 -2.2255,-4.68977 -8.6214,-3.19695 -9.336,1.714836 l 0,5.558586 c 1.9576,-0.78153 4.3479,-0.3298 5.6817,1.85742 0.9914,1.62577 1.0538,3.02204 0.1719,3.75391 -0.9188,0.76256 -1.9421,0.23529 -2.4668,-1.26953 -0.5721,-1.64101 -1.4092,-1.95472 -2.6172,-0.97656 -0.8736,0.70733 -0.9111,0.91848 -0.4278,2.38281 0.7377,2.23522 2.3303,3.37109 4.7227,3.37109 2.6216,0 4.3018,-1.62739 4.7461,-4.58984 0.2043,-1.36258 0.7422,-2.57766 1.5332,-3.46289 1.0277,-1.15017 1.5359,-1.36719 3.2187,-1.36719 1.5525,0 2.2463,0.24588 3.1075,1.10742 1.5222,1.52221 2.1242,3.72346 1.2578,4.58985 -1.0489,1.04904 -1.907,0.77051 -2.5782,-0.83594 -0.6993,-1.6737 -1.3786,-2.07679 -2.5078,-1.49609 -1.5865,0.81596 -0.4056,4.60518 1.7383,5.58203 0.5739,0.26118 1.7397,0.47265 2.5957,0.47265 2.1421,0 4.5349,-2.34563 4.5371,-4.44726 0,-3.45149 3.1741,-5.80117 6.3887,-4.74024 2.5459,0.84016 4.1619,4.378 2.5957,5.67774 -0.9171,0.76124 -1.939,0.23732 -2.4609,-1.25977 -0.5472,-1.56994 -1.8431,-1.98993 -2.8203,-0.91015 -0.6132,0.67755 -0.6428,1.04334 -0.209,2.35742 0.7215,2.1861 2.3234,3.32226 4.6992,3.32226 2.5465,0 4.267,-1.60229 4.7187,-4.40234 0.3971,-2.46204 1.1897,-3.71282 2.9161,-4.60547 2.6072,-1.3483 5.6047,0.1476 6.4921,3.24219 0.3015,1.05054 0.2376,1.54368 -0.2617,2.04297 -1.0874,1.08741 -2.0362,0.6625 -2.7597,-1.24024 -0.3775,-0.99277 -0.6917,-1.2022 -1.668,-1.08984 -0.8789,0.10112 -1.2435,0.42052 -1.3496,1.16992 -0.3672,2.59318 1.9623,4.88281 4.9648,4.88281 2.2063,0 4.5953,-2.31215 4.5977,-4.44726 0,-1.7333 0.8717,-3.23226 2.1191,-4.13477 2.6367,-1.59486 6.7006,-0.0206 7.3418,2.89453 0.6067,2.76182 -1.9742,3.63493 -3.0605,1.03516 -0.5056,-1.21016 -0.8648,-1.52709 -1.5996,-1.41797 -2.1115,0.31383 -2.1812,2.82088 -0.1368,4.86524 0.6257,0.62557 1.5643,1.22028 2.0879,1.32226 0.5237,0.10188 1.1046,0.20962 1.293,0.24219 0.828,0.14412 3.366,-1.267 3.9531,-2.19922 0.3539,-0.56254 0.7776,-1.95184 0.9375,-3.08594 0.2183,-1.55056 0.616,-2.34021 1.6114,-3.17773 3.0085,-2.53153 7.832,-0.66746 7.832,3.02734 0,2.53956 -2.4893,2.70076 -3.0742,0.19922 -0.1712,-0.73228 -0.5996,-1.09698 -1.4043,-1.19141 -1.5691,-0.1843 -2.1577,0.97475 -1.4981,2.94532 1.5822,4.72524 8.4757,4.12731 9.2871,-0.80469 0.648,-3.93893 1.8883,-5.28711 4.8555,-5.28711 2.2303,0 4.3253,1.55131 4.7598,3.5293 0.6014,2.73833 -1.9661,3.64105 -3.041,1.06836 -0.4051,-0.96935 -0.9386,-1.53125 -1.4512,-1.53125 -3.8236,0 -1.0738,6.18562 2.7949,6.28711 3.0609,0.0803 4.5973,-1.4435 5.2031,-5.15235 0.4246,-2.59853 2.262,-4.20117 4.8125,-4.20117 1.6787,0 2.2712,0.22989 3.3477,1.30664 1.068,1.06807 1.2814,1.60732 1.1699,2.95508 -0.1187,1.43109 -0.2784,1.65039 -1.2285,1.65039 -0.815,0 -1.2564,-0.36387 -1.7227,-1.42383 -0.4436,-1.00785 -0.9224,-1.42187 -1.6308,-1.42187 -1.4013,0 -1.9212,1.20196 -1.3106,3.02539 1.1172,3.3364 5.2168,4.41913 7.7051,2.03515 0.7903,-0.75735 1.4304,-1.90705 1.584,-2.83984 0.6479,-3.93893 1.8901,-5.28711 4.8574,-5.28711 2.2302,0 4.3273,1.55131 4.7617,3.5293 0.6015,2.73833 -1.9738,3.64097 -3.0488,1.06836 -0.6651,-1.59168 -1.7965,-2.00434 -2.7891,-1.01172 -0.8947,0.89461 -0.5805,2.44873 0.8106,4.0332 1.6205,1.84567 3.2954,2.28798 5.373,1.41992 1.9049,-0.79595 2.7478,-2.07298 3.125,-4.75 0.3882,-2.75419 2.1231,-4.28906 4.8496,-4.28906 2.5768,0 4.1196,1.32137 4.4551,3.82227 0.2024,1.51013 0.1041,1.91049 -0.5254,2.15234 -1.0295,0.3949 -2.1065,-0.33759 -2.4101,-1.63672 -0.1712,-0.73228 -0.5997,-1.09698 -1.4043,-1.19141 -1.5693,-0.1843 -2.1579,0.97469 -1.4981,2.94532 1.1171,3.3364 5.213,4.41913 7.7012,2.03515 0.7905,-0.75735 1.4325,-1.90705 1.5859,-2.83984 0.6481,-3.93893 1.8902,-5.28711 4.8575,-5.28711 2.2303,0 4.3233,1.55131 4.7578,3.5293 0.6064,2.76181 -1.9684,3.6329 -3.0547,1.0332 -0.5057,-1.21024 -0.8687,-1.52709 -1.6035,-1.41797 -2.0984,0.31175 -2.1824,2.81945 -0.1641,4.83789 1.5263,1.52615 3.4864,1.8486 5.377,0.88867 1.719,-0.87277 2.5555,-2.19382 2.955,-4.66992 0.4189,-2.59763 2.2598,-4.20117 4.8125,-4.20117 1.6788,0 2.2652,0.22989 3.3418,1.30664 0.2274,0.22722 0.3977,0.42336 0.5528,0.61524 0.064,0.0914 0.1355,0.17671 0.1914,0.26953 0.021,0.0276 0.037,0.0625 0.057,0.0918 0.1035,0.1822 0.1899,0.37042 0.2637,0.55469 0.1238,0.39626 0.1567,0.82712 0.1074,1.42383 -0.04,0.47872 -0.095,0.78672 -0.1719,1.03125 -0.1939,0.2501 -0.4625,0.42531 -0.8203,0.47656 -0.1759,0.0276 -0.3096,0.0703 -0.4297,0.11524 -0.6889,-0.0623 -1.1079,-0.43091 -1.541,-1.41602 -0.5116,-1.16299 -0.8509,-1.41922 -1.75,-1.31445 -0.9123,0.10595 -1.1417,0.3919 -1.2558,1.58008 -0.3931,4.09696 5.0323,6.2667 7.9804,3.18945 0.3501,-0.36512 0.655,-0.90179 0.9356,-1.52344 0.1034,-0.21268 0.1912,-0.43587 0.2715,-0.66797 0.2901,-0.79933 0.5494,-1.78483 0.7734,-2.9668 1.2053,-2.97491 4.4443,-4.11241 7.2051,-2.14648 1.4083,1.00273 2.2431,3.27268 1.6386,4.46289 -0.7292,1.43615 -2.9882,0.64577 -2.9882,-1.04492 0,-0.96722 -1.5975,-1.49316 -2.4317,-0.80078 -1.4815,1.22949 -0.3853,4.23138 1.9961,5.46289 1.6854,0.8716 3.0022,0.81925 4.6328,-0.17578 1.4107,-0.8603 2.1237,-2.23585 2.5723,-4.95117 0.3681,-2.22671 2.3582,-3.85938 4.6992,-3.85938 1.4269,0 2.0521,0.29069 3.2813,1.51953 1.2213,1.22126 1.4902,1.79987 1.3789,2.95703 -0.1226,1.27411 -0.2906,1.4375 -1.4492,1.4375 -0.9619,0 -1.3491,-0.23277 -1.4688,-0.87695 -0.3931,-2.11675 -2.3878,-2.69554 -3.1934,-0.92773 -1.1469,2.51724 2.3741,5.92971 5.5079,5.34179 2.2579,-0.42326 4.1875,-3.05921 4.1875,-5.7207 0,-1.61332 2.3922,-3.73047 4.2168,-3.73047 1.8163,0 3.9066,1.00318 4.5312,2.16992 0.7067,1.32046 0.5526,3.5154 -0.2676,3.83008 -0.9617,0.36925 -2.0968,-0.40517 -2.2656,-1.53711 -0.1666,-1.11705 -1.6392,-1.66522 -2.5137,-0.93945 -1.4815,1.22949 -0.3833,4.23138 1.9981,5.46289 1.6854,0.8716 3.0004,0.8192 4.6308,-0.17578 1.4108,-0.8603 2.1257,-2.23585 2.5743,-4.95117 0.3679,-2.22671 2.3522,-3.85938 4.6933,-3.85938 1.4269,0 2.0539,0.29068 3.2832,1.51953 1.2212,1.22125 1.4902,1.7998 1.3789,2.95703 -0.1226,1.27412 -0.2848,1.4375 -1.4433,1.4375 -0.962,0 -1.355,-0.23278 -1.4746,-0.87695 -0.3929,-2.11703 -2.3841,-2.69554 -3.1895,-0.92773 -0.6591,1.44639 0.543,3.86811 2.4199,4.8789 2.9535,1.59056 6.4622,-0.4319 7.0762,-4.07422 0.4728,-2.80469 0.6777,-3.19929 2.0996,-4.0664 1.823,-1.11157 4.2468,-1.08927 5.7012,0.0547 1.3171,1.03609 2.0952,3.32706 1.5176,4.46485 -0.7293,1.43614 -2.9883,0.64576 -2.9883,-1.04492 0,-0.96721 -1.5935,-1.49124 -2.4278,-0.79883 -1.4814,1.22947 -0.3854,4.22943 1.9961,5.46094 1.6854,0.87159 2.9944,0.82266 4.625,-0.17188 1.4107,-0.86037 2.1334,-2.23389 2.5821,-4.94922 0.3678,-2.22669 2.3503,-3.86523 4.6914,-3.86523 1.4267,0 2.048,0.29262 3.2773,1.52148 1.2211,1.22127 1.498,1.79986 1.3867,2.95703 -0.1226,1.27419 -0.2927,1.43555 -1.4511,1.43555 -0.962,0 -1.3492,-0.22925 -1.4688,-0.87305 -0.3931,-2.11703 -2.3839,-2.69942 -3.1894,-0.93164 -0.3676,0.80691 -0.3177,1.37981 0.2324,2.53907 2.1945,4.62466 8.527,3.40804 9.2793,-1.78321 0.3814,-2.63183 0.811,-3.4045 2.3594,-4.20508 1.7972,-0.92945 4.0629,-0.82617 5.4238,0.24414 2.0686,1.62717 2.2887,5.23047 0.3203,5.23047 -0.938,0 -1.6301,-0.72965 -1.8594,-1.96484 -0.3644,-1.96392 -2.998,-1.0442 -2.998,1.04687 0,2.16366 2.5124,4.42659 4.9082,4.42188 2.526,-0.005 4.3244,-2.11025 4.9297,-5.77344 0.1689,-1.02221 0.69,-1.92822 1.5371,-2.68164 0.045,-0.0416 0.07,-0.0558 0.1211,-0.10351 0.7111,-0.64363 1.8055,-0.99444 2.9121,-1.01954 0.1781,0.008 0.3658,0.0279 0.5761,0.0488 0.2186,0.0209 0.4046,0.0409 0.5801,0.0547 0.413,0.0811 0.8068,0.21025 1.1641,0.39453 2.4651,1.27474 3.474,4.9544 1.5586,5.68945 -0.9032,0.34641 -1.7557,-0.34063 -2.0957,-1.69531 -0.1781,-0.70919 -0.6268,-1.12952 -1.1387,-1.30078 -0.6826,-0.38522 -1.6602,-0.19726 -2.0762,0.58008 -0.6683,1.24874 0.1751,3.31713 1.6172,4.52344 0.3407,0.35956 0.6941,0.64492 1.0137,0.77343 0.5406,0.21758 1.6419,0.40859 2.4492,0.42383 1.8588,0.0343 4.4473,-2.35639 4.4473,-4.10742 0,-3.10937 2.2921,-5.50586 5.2734,-5.50586 2.8725,0 5.6372,4.52698 3.7305,6.10938 -0.847,0.70282 -2.3282,-0.0934 -2.5156,-1.35352 -0.1987,-1.33585 -1.409,-2.0115 -2.2911,-1.2793 -1.4113,1.17129 -0.58,4.2118 1.4883,5.4336 3.3109,1.95589 7.4551,-0.53368 7.4551,-4.47657 0,-1.80851 1.8581,-3.89452 3.7949,-4.25781 2.9956,-0.56185 6.3074,2.28234 5.6602,4.86133 -0.5022,2.00072 -2.5238,1.73442 -3.0606,-0.4043 -0.3147,-1.25347 -1.3532,-1.71876 -2.4882,-1.11132 -1.0124,0.54176 -1.0747,1.7632 -0.1856,3.48242 1.5831,3.06152 5.0457,3.58902 7.4922,1.14258 0.9394,-0.93937 1.4883,-1.9134 1.4883,-2.64063 0,-3.10937 2.2999,-5.50586 5.2812,-5.50586 2.9282,0 5.7979,4.8478 3.5996,6.07813 -0.9846,0.55076 -2.3086,-0.15147 -2.3086,-1.22071 0,-1.12085 -1.0971,-1.92058 -2.1699,-1.58008 -0.6812,0.21614 -0.8965,0.65714 -0.8965,1.83204 0,2.05384 2.3537,4.53125 4.3086,4.53125 3.0739,0 5.3266,-2.19489 5.3301,-5.19336 0,-2.00236 2.3941,-4.44727 4.3555,-4.44727 2.0671,0 3.9498,1.17264 4.6758,2.91016 0.7114,1.7026 0.4938,2.99935 -0.5664,3.40625 -0.8803,0.33808 -1.7354,-0.35632 -2.0684,-1.6836 -0.3146,-1.25347 -1.3511,-1.71876 -2.4863,-1.11132 -1.0845,0.58057 -1.0704,2.01489 0.035,3.82812 0.9501,1.55837 2.3671,2.29102 4.4473,2.29102 1.7244,0 4.3086,-2.48101 4.3086,-4.13477 0,-2.30733 1.2691,-4.21844 3.1406,-5.05273 l 0,-4.884766 c -0.2537,1.078186 -0.7451,2.092046 -1.4062,2.832026 -1.0352,1.15869 -1.5277,1.36328 -3.2618,1.36328 -1.7543,0 -2.2228,-0.19894 -3.3203,-1.42773 -1.3819,-1.54675 -1.6932,-3.595142 -0.6758,-4.439442 0.8419,-0.69883 1.9835,-0.14348 2.2989,1.113276 0.5838,2.325546 3.2285,2.211746 3.2285,-0.138676 0,-5.53345 -8.5474,-6.13754 -9.4219,-0.66601 -0.7033,4.401692 -3.0394,6.381102 -6.3516,5.388662 -2.9125,-0.87255 -4.6218,-4.669436 -2.5917,-5.755852 1.0896,-0.58336 1.9426,-0.028 2.33,1.515626 0.3192,1.272086 1.3552,1.716406 2.5371,1.083976 1.3111,-0.701786 0.8101,-3.302222 -0.9453,-4.884762 -2.5746,-2.32092 -6.9559,-1.11175 -7.8672,2.16993 -0.2543,0.91601 -0.4575,2.002076 -0.4589,2.419912 0,0.41779 -0.5842,1.40648 -1.2872,2.19336 -1.0976,1.22825 -1.5642,1.42773 -3.3183,1.42773 -1.7541,0 -2.2267,-0.19894 -3.3242,-1.42773 -1.396,-1.56241 -1.6909,-3.595622 -0.6485,-4.460932 0.8471,-0.70283 2.3302,0.0954 2.5176,1.355466 0.3332,2.239726 2.9883,1.958526 2.9883,-0.31641 0,-5.569126 -8.5306,-6.208066 -9.4395,-0.707026 -0.6053,3.663182 -2.4039,5.770762 -4.9297,5.775382 -3.3682,0.006 -6.5021,-4.806406 -4.0019,-6.144522 1.0897,-0.58334 1.9466,-0.028 2.334,1.515626 0.4404,1.754176 2.5849,1.923586 3.1172,0.24609 0.7857,-2.475336 -1.7637,-5.253906 -4.8203,-5.253906 -2.5553,0 -4.4215,1.7857 -4.8497,4.640626 -0.573,3.821006 -3.7447,5.901556 -6.6816,4.382806 -1.6876,-0.8727 -2.709,-2.30599 -2.709,-3.806636 0,-2.419926 2.2072,-2.682276 3.0176,-0.35742 0.8562,2.456146 3.126,1.988316 3.1074,-0.640626 -0.021,-2.94076 -3.1465,-4.74701 -5.8691,-4.07812 -0.415,-0.20021 -1.1227,0.17712 -2.1856,1.12695 -0.9971,0.89109 -1.4171,1.71761 -1.6054,3.17578 -0.3252,2.517532 -1.5564,4.267702 -3.3321,4.740232 -2.6559,0.70671 -5.2612,-0.68155 -5.9375,-3.16797 -0.7976,-2.931582 1.6233,-4.084212 2.7774,-1.322266 0.5553,1.329186 0.8345,1.542346 1.8672,1.423826 0.889,-0.10187 1.2529,-0.41649 1.3593,-1.167966 0.49,-3.460416 -3.4805,-6.171396 -6.7558,-4.617186 -1.705,0.8091 -2.5579,2.16677 -2.9512,4.712896 -0.6203,4.016516 -5.0758,5.763416 -7.9375,3.111316 -1.9773,-1.83263 -1.9641,-4.804672 0.021,-4.804672 0.5116,0 1.0673,0.53573 1.4492,1.402336 0.763,1.733146 1.4065,2.010406 2.6484,1.140616 0.7414,-0.519606 0.8985,-0.937316 0.6797,-1.828112 -1.0434,-4.24584 -5.6077,-5.59829 -8.5,-2.51953 -0.562,0.59788 -1.105,1.94961 -1.3144,3.275386 -0.4202,2.657396 -1.3473,3.839996 -3.4903,4.431636 -1.236,0.34157 -1.8865,0.27505 -3.1113,-0.32422 -1.9554,-0.95674 -3.3723,-3.566056 -2.6582,-4.900382 0.7572,-1.41481 2.1538,-1.1263 2.8731,0.595696 0.3431,0.82123 0.8743,1.587176 1.1816,1.697266 0.9776,0.34984 2.0898,-0.55308 2.0898,-1.693356 0,-3.194236 -3.0938,-5.404546 -6.3203,-4.513666 -1.8738,0.51752 -2.8587,1.87609 -3.3808,4.669916 -0.6311,3.378736 -3.3149,5.214706 -6.4141,4.390626 -2.449,-0.65123 -4.0526,-4.317026 -2.4648,-5.634762 0.8921,-0.7404 2.0401,-0.0791 2.3847,1.380856 0.1907,0.807796 0.5366,1.058586 1.4922,1.058586 1.8595,0 2.3052,-1.060396 1.3028,-3.113272 -0.5476,-1.12176 -1.4084,-1.98741 -2.5059,-2.52344 -0.7497,-0.36577 -1.2046,-0.55168 -1.6563,-0.58007 l 0,0 z m 0,21.382798 0,0.0215 c -0.4517,-0.0276 -0.9009,0.10583 -1.623,0.38086 -1.7927,0.6824 -3.5918,2.989982 -3.5918,4.607422 0,1.44268 -1.1309,3.50955 -2.2481,4.10743 -1.3454,0.72002 -3.7323,0.60376 -5.0234,-0.24219 -1.5107,-0.98979 -2.5409,-3.46468 -1.9219,-4.6211 0.7505,-1.402332 2.0847,-1.068762 2.8243,0.70118 0.5553,1.32917 0.8345,1.53657 1.8671,1.41796 1.4265,-0.1642 1.8058,-1.47062 0.9903,-3.439452 -0.9084,-2.19311 -3.3713,-3.255 -5.9219,-2.55078 -1.8265,0.50436 -2.8168,1.87934 -3.3301,4.626952 -0.6478,3.46708 -3.2201,5.30493 -6.2558,4.4668 -2.5804,-0.71254 -4.2847,-4.30961 -2.6739,-5.64648 0.9305,-0.772142 1.9429,-0.22883 2.4864,1.33007 0.3792,1.08769 0.6824,1.31907 1.58,1.21094 1.749,-0.21061 2.1286,-1.2629 1.1602,-3.246092 -1.1261,-2.30671 -3.5092,-3.51036 -5.5879,-2.82422 -2.1721,0.71676 -3.3345,2.20066 -3.7422,4.779302 -0.4201,2.6574 -1.351,3.83805 -3.4941,4.42968 -1.236,0.34156 -1.8885,0.27504 -3.1133,-0.32422 -1.9555,-0.95675 -3.3645,-3.56412 -2.6504,-4.89843 0.7572,-1.414842 2.1496,-1.123652 2.8692,0.59765 0.6993,1.67372 1.3747,2.07686 2.5039,1.4961 1.5283,-0.78597 0.5199,-4.505702 -1.4922,-5.498052 -3.971,-1.95853 -6.7912,-0.17994 -7.584,4.781252 -0.5396,3.37695 -4.5825,5.04799 -7.5352,3.11328 -0.1296,-0.0845 -0.206,-0.12394 -0.3047,-0.18359 -1.444,-1.32295 -2.0488,-3.33741 -1.2461,-4.30469 0.7461,-0.89895 2.3292,-0.59416 2.5274,0.48242 0.3538,1.92416 2.0479,2.62255 3.1465,1.29883 0.7823,-0.9426 -0.1576,-3.938372 -1.5156,-4.828122 -3.8491,-2.5221 -7.8891,0.0728 -8.0977,5.201172 -0.018,0.43989 -0.6102,1.37773 -1.3145,2.08203 -2.8684,2.86835 -7.9218,0.75725 -7.9218,-3.31055 0,-2.142932 2.5641,-1.933822 3.08,0.25195 0.1933,0.81901 0.5368,1.05469 1.543,1.05469 1.1705,0 1.3061,-0.15144 1.4258,-1.58203 0.1,-1.19153 -0.1518,-1.919162 -1.0137,-2.943362 -2.9422,-3.49664 -8.5304,-1.29441 -8.5351,3.363282 0,2.2089 -2.3884,4.44727 -4.7422,4.44727 -3.0774,0 -5.9905,-3.6323 -4.4258,-5.51758 0.8008,-0.964922 2.297,-0.58258 2.5879,0.6582 0.5205,2.22107 3.103,2.32053 3.4297,0.13282 0.3857,-2.582662 -2.9297,-5.267182 -5.8321,-4.722662 -2.256,0.42327 -4.164,3.075202 -4.164,5.789062 0,0.63183 -0.5419,1.6433 -1.2774,2.37891 -1.0358,1.03586 -1.6554,1.28125 -3.25,1.28125 -2.5775,0 -4.6699,-1.88642 -4.6699,-4.21094 0,-2.480062 2.4966,-2.584512 3.0762,-0.12891 0.1934,0.81901 0.5387,1.05469 1.5449,1.05469 1.146,0 1.3061,-0.16911 1.4297,-1.45703 0.1757,-1.831112 -0.8318,-3.402282 -2.7734,-4.328122 -3.1262,-1.49082 -6.7743,0.99551 -6.7774,4.621092 0,2.20889 -2.3923,4.45312 -4.7461,4.45312 -3.0774,0 -5.9904,-3.63632 -4.4258,-5.52148 0.8008,-0.964922 2.3008,-0.5826 2.5918,0.6582 0.5204,2.22115 3.0952,2.32046 3.4219,0.13282 0.3857,-2.582732 -2.9238,-5.267182 -5.8262,-4.722662 -2.2562,0.42325 -4.1621,3.075202 -4.1621,5.789062 0,0.63183 -0.5437,1.63948 -1.2793,2.375 -2.7624,2.76252 -7.9199,0.90961 -7.9199,-2.84765 0,-2.548172 2.4821,-2.715322 3.0742,-0.20704 0.1933,0.81908 0.5407,1.05469 1.5469,1.05469 1.1361,0 1.3086,-0.17421 1.4277,-1.40625 0.075,-0.77193 -0.084,-1.816412 -0.3554,-2.322262 -0.6308,-1.17902 -2.9921,-2.62145 -4.293,-2.62305 -2.607,-0.005 -4.9023,2.46722 -4.9023,5.275392 0,2.11763 -2.4386,4.36133 -4.7422,4.36133 -3.0772,0 -5.9903,-3.63243 -4.4258,-5.51758 0.8008,-0.964922 2.295,-0.5826 2.5859,0.6582 0.3362,1.43477 1.5254,2.15028 2.5254,1.52344 1.838,-1.15211 0.6501,-4.627522 -1.957,-5.716802 -3.3371,-1.39431 -6.3553,0.58086 -6.9512,4.554692 -0.4276,2.85152 -2.179,4.49805 -4.793,4.49805 -1.8472,0 -3.4717,-1.05877 -4.1914,-2.53516 -0.086,-0.52446 -0.1655,-1.0574 -0.2343,-1.45117 -0.056,-0.32357 -0.083,-0.61443 -0.086,-0.87305 0.4007,-1.820232 2.4806,-1.697612 3.0039,0.51953 0.1934,0.81908 0.5368,1.05469 1.543,1.05469 1.1363,0 1.3106,-0.17417 1.4297,-1.40625 0.075,-0.77193 -0.087,-1.816412 -0.3574,-2.322262 -0.6309,-1.17902 -2.9902,-2.62145 -4.291,-2.62305 -0.2417,-3.5e-4 -0.4772,0.0286 -0.7129,0.0703 -0.026,-0.0343 -0.058,-0.0566 -0.09,-0.0566 -0.073,0 -0.3311,0.10045 -0.6601,0.24805 -0.2907,0.10596 -0.576,0.24223 -0.8438,0.4043 -0.023,0.0135 -0.039,0.0215 -0.064,0.0351 -0.4746,0.24526 -0.9174,0.6561 -1.3008,1.16406 -0.6666,0.81269 -1.1156,1.818882 -1.2129,2.890632 -0.037,0.25562 -0.057,0.51525 -0.057,0.76562 0,0.0276 -0.012,0.0606 -0.012,0.0937 -0.065,0.36723 -0.2072,0.77499 -0.4023,1.17188 -0.2545,0.44479 -0.6235,0.9163 -1.084,1.37695 -1.7506,1.75049 -3.643,1.95652 -5.8008,0.64063 -1.6633,-1.01424 -2.7274,-3.63772 -1.8887,-4.64844 0.9015,-1.086272 2.2002,-0.76612 2.7442,0.67578 0.9241,2.44819 3.3711,2.0624 3.3711,-0.5332 0,-0.89932 -0.4673,-1.773922 -1.4942,-2.800782 -3.0292,-3.02924 -7.343,-1.39308 -8.1816,3.095702 -0.6808,3.64341 -2.1598,5.05273 -5.2891,5.05273 -1.9966,0 -4.411,-2.55642 -4.2265,-4.47461 0.1225,-1.27571 0.2857,-1.43359 1.4511,-1.43359 1.0162,0 1.3403,0.21165 1.4454,0.94922 0.1819,1.27688 1.1644,2.02868 2.2148,1.69531 1.1667,-0.36992 1.4022,-1.19314 0.8828,-3.07422 -0.4994,-1.808642 -2.5025,-3.293832 -4.4551,-3.296872 -2.8281,-0.003 -5.1269,2.46911 -5.1269,5.509762 0,1.68258 -2.5865,4.125 -4.3613,4.125 -2.0671,0 -3.9459,-1.16671 -4.6719,-2.90429 -0.8249,-1.9746 -0.4481,-3.22657 0.9785,-3.22657 0.8122,0 1.2038,0.32808 1.541,1.29493 0.8597,2.4664 3.4492,2.08402 3.4492,-0.51172 0,-0.90847 -0.4725,-1.775452 -1.5488,-2.851562 -1.4325,-1.43249 -1.6905,-1.52923 -3.5957,-1.31446 -1.5804,0.17804 -2.3397,0.54613 -3.2773,1.59571 -0.6705,0.75031 -1.2168,1.858592 -1.2168,2.464842 0,3.37079 -2.7522,5.85853 -5.8399,5.2793 -2.0827,-0.39069 -3.8912,-2.52171 -3.7109,-4.37305 0.1162,-1.19085 0.296,-1.36524 1.4394,-1.36524 0.9619,0 1.3531,0.23314 1.4727,0.87696 0.3931,2.11709 2.3838,2.69944 3.1894,0.93164 0.3712,-0.81506 0.3075,-1.39374 -0.289,-2.650392 -2.2255,-4.68977 -8.6214,-3.19518 -9.336,1.716792 l 0,5.5586 c 1.9577,-0.78173 4.3479,-0.33189 5.6817,1.85547 0.9914,1.62576 1.0538,3.02399 0.1719,3.75586 -0.9188,0.76256 -1.9421,0.23528 -2.4668,-1.26953 -0.5721,-1.64102 -1.4092,-1.95668 -2.6172,-0.97852 -0.8736,0.70734 -0.9111,0.92043 -0.4278,2.38477 0.7377,2.23522 2.3303,3.37109 4.7227,3.37109 2.6216,0 4.3018,-1.62739 4.7461,-4.58984 0.2043,-1.36258 0.7422,-2.57962 1.5332,-3.46485 1.0277,-1.15017 1.5359,-1.36523 3.2187,-1.36523 1.5525,0 2.2463,0.24588 3.1075,1.10742 1.5222,1.52221 2.1242,3.72345 1.2578,4.58984 -1.0489,1.04904 -1.907,0.76856 -2.5782,-0.83789 -0.6993,-1.6737 -1.3786,-2.07679 -2.5078,-1.49609 -1.5865,0.81596 -0.4056,4.60519 1.7383,5.58203 0.5739,0.26119 1.7397,0.47461 2.5957,0.47461 2.1421,0 4.5349,-2.34759 4.5371,-4.44922 0,-3.45149 3.1741,-5.80117 6.3887,-4.74023 2.5459,0.84015 4.1619,4.37799 2.5957,5.67773 -0.9171,0.76125 -1.939,0.23928 -2.4609,-1.25781 -0.5472,-1.56994 -1.8431,-1.98993 -2.8203,-0.91016 -0.6132,0.67756 -0.6428,1.0414 -0.209,2.35547 0.7215,2.1861 2.3234,3.32422 4.6992,3.32422 2.5465,0 4.267,-1.60425 4.7187,-4.4043 0.3971,-2.46204 1.1897,-3.71282 2.9161,-4.60547 2.6072,-1.3483 5.6047,0.1476 6.4921,3.24219 0.3015,1.05055 0.2376,1.54563 -0.2617,2.04492 -1.0874,1.08742 -2.0362,0.66056 -2.7597,-1.24218 -0.3775,-0.99278 -0.6917,-1.20221 -1.668,-1.08985 -0.8789,0.10112 -1.2435,0.42052 -1.3496,1.16992 -0.3672,2.59319 1.9623,4.88477 4.9648,4.88477 2.2063,0 4.5953,-2.31411 4.5977,-4.44922 0,-1.73329 0.8717,-3.2303 2.1191,-4.13281 2.6367,-1.59486 6.7006,-0.0206 7.3418,2.89453 0.6067,2.76182 -1.9742,3.63493 -3.0605,1.03516 -0.5056,-1.21017 -0.8648,-1.52905 -1.5996,-1.41993 -2.1115,0.31384 -2.1812,2.82088 -0.1368,4.86524 0.6257,0.62558 1.5643,1.22224 2.0879,1.32422 0.5237,0.10187 1.1046,0.20962 1.293,0.24218 0.828,0.14412 3.366,-1.26699 3.9531,-2.19921 0.3539,-0.56255 0.7776,-1.9538 0.9375,-3.0879 0.2183,-1.55057 0.616,-2.33825 1.6114,-3.17578 3.0085,-2.53153 7.832,-0.66745 7.832,3.02735 0,2.53955 -2.4893,2.70076 -3.0742,0.19922 -0.1712,-0.73229 -0.5996,-1.09698 -1.4043,-1.19141 -1.5691,-0.18429 -2.1577,0.97279 -1.4981,2.94336 1.5822,4.72525 8.4757,4.12731 9.2871,-0.80469 0.648,-3.93892 1.8883,-5.28711 4.8555,-5.28711 2.2303,0 4.3253,1.55132 4.7598,3.5293 0.6014,2.73833 -1.9661,3.643 -3.041,1.07031 -0.4051,-0.96933 -0.9386,-1.53125 -1.4512,-1.53125 -3.8236,0 -1.0738,6.18366 2.7949,6.28516 3.0609,0.0803 4.5973,-1.44155 5.2031,-5.15039 0.4246,-2.59853 2.262,-4.20313 4.8125,-4.20313 1.6787,0 2.2712,0.22989 3.3477,1.30664 1.068,1.06807 1.2814,1.60732 1.1699,2.95508 -0.1187,1.43109 -0.2784,1.65039 -1.2285,1.65039 -0.815,0 -1.2564,-0.36387 -1.7227,-1.42383 -0.4436,-1.00785 -0.9224,-1.41992 -1.6308,-1.41992 -1.4013,0 -1.9212,1.20001 -1.3106,3.02344 1.1172,3.33641 5.2168,4.41912 7.7051,2.03516 0.7903,-0.75737 1.4304,-1.90705 1.584,-2.83985 0.6479,-3.93892 1.8901,-5.28711 4.8574,-5.28711 2.2302,0 4.3273,1.55132 4.7617,3.5293 0.6015,2.73833 -1.9738,3.64292 -3.0488,1.07031 -0.6651,-1.59168 -1.7965,-2.0063 -2.7891,-1.01367 -0.8947,0.8946 -0.5805,2.45068 0.8106,4.03516 1.6205,1.84565 3.2954,2.28602 5.373,1.41796 1.9049,-0.79596 2.7478,-2.07299 3.125,-4.75 0.3882,-2.7542 2.1231,-4.28906 4.8496,-4.28906 2.5768,0 4.1196,1.32137 4.4551,3.82227 0.2024,1.51014 0.1041,1.91049 -0.5254,2.15234 -1.0295,0.3949 -2.1065,-0.33564 -2.4101,-1.63476 -0.1712,-0.73229 -0.5997,-1.09698 -1.4043,-1.19141 -1.5693,-0.18429 -2.1579,0.97273 -1.4981,2.94336 1.1171,3.33641 5.213,4.41912 7.7012,2.03516 0.7905,-0.75737 1.4325,-1.90705 1.5859,-2.83985 0.6481,-3.93892 1.8902,-5.28711 4.8575,-5.28711 2.2303,0 4.3233,1.55132 4.7578,3.5293 0.6064,2.76182 -1.9684,3.63485 -3.0547,1.03516 -0.5057,-1.21025 -0.8687,-1.52905 -1.6035,-1.41993 -2.0984,0.31175 -2.1824,2.81945 -0.1641,4.83789 1.5263,1.52615 3.4864,1.85056 5.377,0.89063 1.719,-0.87278 2.5555,-2.19383 2.955,-4.66992 0.4189,-2.59763 2.2598,-4.20313 4.8125,-4.20313 1.6788,0 2.2652,0.22989 3.3418,1.30664 0.2274,0.22722 0.3977,0.42531 0.5528,0.61719 0.064,0.0914 0.1355,0.17671 0.1914,0.26953 0.021,0.0276 0.037,0.0626 0.057,0.0918 0.1035,0.1822 0.1899,0.36846 0.2637,0.55273 0.1238,0.39628 0.1567,0.82713 0.1074,1.42383 -0.04,0.47872 -0.095,0.78867 -0.1719,1.0332 -0.1939,0.25011 -0.4625,0.42531 -0.8203,0.47657 -0.1759,0.0276 -0.3096,0.0683 -0.4297,0.11328 -0.6889,-0.0623 -1.1079,-0.43091 -1.541,-1.41602 -0.5116,-1.16299 -0.8509,-1.41922 -1.75,-1.31445 -0.9123,0.10596 -1.1417,0.39386 -1.2558,1.58203 -0.3931,4.09696 5.0323,6.2667 7.9804,3.18945 0.3501,-0.36512 0.655,-0.90373 0.9356,-1.52539 0.1034,-0.21268 0.1912,-0.43587 0.2715,-0.66797 0.2901,-0.79932 0.5494,-1.78483 0.7734,-2.96679 1.2053,-2.97492 4.4443,-4.11242 7.2051,-2.14649 1.4083,1.00274 2.2431,3.27268 1.6386,4.46289 -0.7292,1.43615 -2.9882,0.64577 -2.9882,-1.04492 0,-0.9672 -1.5975,-1.49316 -2.4317,-0.80078 -1.4815,1.22949 -0.3853,4.23334 1.9961,5.46484 1.6854,0.8716 3.0022,0.8173 4.6328,-0.17773 1.4107,-0.8603 2.1237,-2.23389 2.5723,-4.94922 0.3681,-2.2267 2.3582,-3.85937 4.6992,-3.85937 1.4269,0 2.0521,0.28873 3.2813,1.51757 1.2213,1.22126 1.4902,1.79986 1.3789,2.95704 -0.1226,1.2741 -0.2906,1.43945 -1.4492,1.43945 -0.9619,0 -1.3491,-0.23474 -1.4688,-0.87891 -0.3931,-2.11675 -2.3878,-2.69553 -3.1934,-0.92773 -1.1469,2.51725 2.3741,5.9297 5.5079,5.34179 2.2579,-0.42327 4.1875,-3.05921 4.1875,-5.7207 0,-1.61332 2.3922,-3.72851 4.2168,-3.72851 1.8163,0 3.9066,1.00123 4.5312,2.16796 0.7067,1.32047 0.5526,3.5154 -0.2676,3.83008 -0.9617,0.36925 -2.0968,-0.40322 -2.2656,-1.53515 -0.1666,-1.11705 -1.6392,-1.66718 -2.5137,-0.94141 -1.4815,1.22949 -0.3833,4.23334 1.9981,5.46484 1.6854,0.8716 3.0004,0.81725 4.6308,-0.17773 1.4108,-0.8603 2.1257,-2.23389 2.5743,-4.94922 0.3679,-2.2267 2.3522,-3.85937 4.6933,-3.85937 1.4269,0 2.0539,0.28873 3.2832,1.51757 1.2212,1.22126 1.4902,1.7998 1.3789,2.95704 -0.1226,1.27411 -0.2848,1.43945 -1.4433,1.43945 -0.962,0 -1.355,-0.23474 -1.4746,-0.87891 -0.3929,-2.11703 -2.3841,-2.69553 -3.1895,-0.92773 -0.6591,1.44639 0.543,3.87006 2.4199,4.88086 2.9535,1.59056 6.4622,-0.43191 7.0762,-4.07422 0.4728,-2.8047 0.6777,-3.1993 2.0996,-4.06641 1.823,-1.11156 4.2468,-1.08925 5.7012,0.0547 1.3171,1.03608 2.0952,3.32511 1.5176,4.46289 -0.7293,1.43614 -2.9883,0.64576 -2.9883,-1.04492 0,-0.96721 -1.5935,-1.49123 -2.4278,-0.79883 -1.4814,1.22947 -0.3854,4.22943 1.9961,5.46094 1.6854,0.87159 2.9944,0.82266 4.625,-0.17188 1.4107,-0.86036 2.1334,-2.23389 2.5821,-4.94922 0.3678,-2.22669 2.3503,-3.86523 4.6914,-3.86523 1.4267,0 2.048,0.29262 3.2773,1.52148 1.2211,1.22127 1.498,1.79986 1.3867,2.95704 -0.1226,1.27418 -0.2927,1.43554 -1.4511,1.43554 -0.962,0 -1.3492,-0.22729 -1.4688,-0.87109 -0.3931,-2.11703 -2.3839,-2.70138 -3.1894,-0.9336 -0.3676,0.80691 -0.3177,1.37981 0.2324,2.53907 2.1945,4.62466 8.527,3.40805 9.2793,-1.78321 0.3814,-2.63183 0.811,-3.40254 2.3594,-4.20312 1.7972,-0.92945 4.0629,-0.82618 5.4238,0.24414 2.0686,1.62717 2.2887,5.22852 0.3203,5.22852 -0.938,0 -1.6301,-0.72966 -1.8594,-1.96485 -0.3644,-1.96392 -2.998,-1.04419 -2.998,1.04688 0,2.16365 2.5124,4.42853 4.9082,4.42382 2.526,-0.005 4.3244,-2.1122 4.9297,-5.77539 0.1689,-1.02221 0.69,-1.92627 1.5371,-2.67968 0.045,-0.0416 0.07,-0.0577 0.1211,-0.10547 0.7111,-0.64363 1.8055,-0.99443 2.9121,-1.01953 0.1781,0.008 0.3658,0.0298 0.5761,0.0508 0.2186,0.0208 0.4046,0.0409 0.5801,0.0547 0.413,0.0811 0.8068,0.20829 1.1641,0.39257 2.4651,1.27474 3.474,4.95636 1.5586,5.69141 -0.9032,0.34641 -1.7557,-0.34063 -2.0957,-1.69531 -0.1781,-0.7092 -0.6268,-1.13148 -1.1387,-1.30274 -0.6826,-0.38522 -1.6602,-0.1953 -2.0762,0.58203 -0.6683,1.24875 0.1751,3.31518 1.6172,4.52149 0.3407,0.35956 0.6941,0.64492 1.0137,0.77344 0.5406,0.21757 1.6419,0.40858 2.4492,0.42382 1.8588,0.0343 4.4473,-2.35444 4.4473,-4.10546 0,-3.10938 2.2921,-5.50586 5.2734,-5.50586 2.8725,0 5.6372,4.52698 3.7305,6.10937 -0.847,0.70283 -2.3282,-0.0954 -2.5156,-1.35547 -0.1987,-1.33584 -1.409,-2.0115 -2.2911,-1.27929 -1.4113,1.17128 -0.58,4.21179 1.4883,5.43359 3.3109,1.95589 7.4551,-0.53173 7.4551,-4.47461 0,-1.80853 1.8581,-3.89648 3.7949,-4.25977 2.9956,-0.56185 6.3074,2.28429 5.6602,4.86329 -0.5022,2.00071 -2.5238,1.73443 -3.0606,-0.4043 -0.3147,-1.25348 -1.3532,-1.72072 -2.4882,-1.11328 -1.0124,0.54176 -1.0747,1.76515 -0.1856,3.48437 1.5831,3.06152 5.0457,3.58708 7.4922,1.14063 0.9394,-0.93935 1.4883,-1.91145 1.4883,-2.63867 0,-3.10939 2.2999,-5.50586 5.2812,-5.50586 2.9282,0 5.7979,4.84584 3.5996,6.07617 -0.9846,0.55076 -2.3086,-0.14951 -2.3086,-1.21875 0,-1.12086 -1.0971,-1.92253 -2.1699,-1.58203 -0.6812,0.21613 -0.8965,0.65909 -0.8965,1.83398 0,2.05384 2.3537,4.5293 4.3086,4.5293 3.0739,0 5.3266,-2.19489 5.3301,-5.19336 0,-2.00236 2.3941,-4.44531 4.3555,-4.44531 2.0671,0 3.9498,1.17264 4.6758,2.91015 0.7114,1.70261 0.4938,2.9974 -0.5664,3.4043 -0.8803,0.33809 -1.7354,-0.35437 -2.0684,-1.68164 -0.3146,-1.25348 -1.3511,-1.72072 -2.4863,-1.11328 -1.0845,0.58057 -1.0704,2.01489 0.035,3.82812 0.9501,1.55837 2.3671,2.29102 4.4473,2.29102 1.7244,0 4.3086,-2.47906 4.3086,-4.13281 0,-2.30735 1.2691,-4.21845 3.1406,-5.05274 l 0,-4.88476 c -0.2537,1.07777 -0.7451,2.0901 -1.4062,2.83007 -1.0352,1.15869 -1.5277,1.36327 -3.2618,1.36328 -1.7543,0 -2.2228,-0.19894 -3.3203,-1.42773 -1.3819,-1.54674 -1.6932,-3.59319 -0.6758,-4.4375 0.8419,-0.698822 1.9835,-0.14543 2.2989,1.11133 0.5838,2.32556 3.2285,2.2137 3.2285,-0.13672 0,-5.533452 -8.5474,-6.137542 -9.4219,-0.66602 -0.7033,4.40172 -3.0394,6.38111 -6.3516,5.38868 -2.9125,-0.87256 -4.6218,-4.6714 -2.5917,-5.75782 1.0896,-0.583342 1.9426,-0.028 2.33,1.51563 0.3192,1.27209 1.3552,1.71642 2.5371,1.08398 1.3111,-0.7018 0.8101,-3.302242 -0.9453,-4.884762 -2.5746,-2.32093 -6.9559,-1.11175 -7.8672,2.169922 -0.2543,0.91601 -0.4575,2.00404 -0.4589,2.42187 0,0.4178 -0.5842,1.40453 -1.2872,2.19141 -1.0976,1.22825 -1.5642,1.42773 -3.3183,1.42773 -1.7541,0 -2.2267,-0.19894 -3.3242,-1.42773 -1.396,-1.5624 -1.6909,-3.59563 -0.6485,-4.46094 0.8471,-0.702832 2.3302,0.0973 2.5176,1.35742 0.3332,2.23974 2.9883,1.95658 2.9883,-0.31835 0,-5.569142 -8.5306,-6.208072 -9.4395,-0.70704 -0.6053,3.6632 -2.4039,5.77273 -4.9297,5.77735 -3.3682,0.006 -6.5021,-4.80837 -4.0019,-6.14649 1.0897,-0.583342 1.9466,-0.028 2.334,1.51563 0.4404,1.75419 2.5849,1.9236 3.1172,0.24609 0.7857,-2.475342 -1.7637,-5.251952 -4.8203,-5.251952 -2.5553,0 -4.4215,1.78374 -4.8497,4.638672 -0.573,3.82102 -3.7447,5.90351 -6.6816,4.38477 -1.6876,-0.8727 -2.709,-2.30794 -2.709,-3.8086 0,-2.419932 2.2072,-2.680322 3.0176,-0.35547 0.8562,2.45616 3.126,1.98833 3.1074,-0.64062 -0.021,-2.940762 -3.1465,-4.748972 -5.8691,-4.080082 -0.415,-0.2002 -1.1227,0.17712 -2.1856,1.12695 -0.9971,0.89108 -1.4171,1.71956 -1.6054,3.177742 -0.3252,2.51753 -1.5564,4.26574 -3.3321,4.73828 -2.6559,0.7067 -5.2612,-0.68154 -5.9375,-3.16797 -0.7976,-2.931592 1.6233,-4.084202 2.7774,-1.32226 0.5553,1.32919 0.8345,1.54234 1.8672,1.42382 0.889,-0.10187 1.2529,-0.41453 1.3593,-1.16601 0.49,-3.460422 -3.4805,-6.173362 -6.7558,-4.619142 -1.705,0.8091 -2.5579,2.16676 -2.9512,4.712892 -0.6203,4.01653 -5.0758,5.76342 -7.9375,3.11133 -1.9773,-1.83263 -1.9641,-4.80469 0.021,-4.80469 0.5116,0 1.0673,0.53572 1.4492,1.40234 0.763,1.73316 1.4065,2.01237 2.6484,1.14258 0.7414,-0.51961 0.8985,-0.93732 0.6797,-1.82812 -1.0434,-4.245842 -5.6077,-5.600252 -8.5,-2.521492 -0.562,0.59788 -1.105,1.951572 -1.3144,3.277342 -0.4202,2.65741 -1.3473,3.83805 -3.4903,4.42969 -1.236,0.34157 -1.8865,0.27506 -3.1113,-0.32422 -1.9554,-0.95673 -3.3723,-3.56411 -2.6582,-4.89843 0.7572,-1.414822 2.1538,-1.126302 2.8731,0.5957 0.3431,0.82123 0.8743,1.58522 1.1816,1.69531 0.9776,0.34985 2.0898,-0.55308 2.0898,-1.69336 0,-3.194242 -3.0938,-5.404542 -6.3203,-4.513672 -1.8738,0.51752 -2.8587,1.8761 -3.3808,4.669922 -0.6311,3.37875 -3.3149,5.21666 -6.4141,4.39258 -2.449,-0.65122 -4.0526,-4.31898 -2.4648,-5.63672 0.8921,-0.740412 2.0401,-0.0772 2.3847,1.38281 0.1907,0.8078 0.5366,1.05663 1.4922,1.05664 1.8595,0 2.3052,-1.05844 1.3028,-3.111322 -0.5476,-1.12176 -1.4084,-1.98739 -2.5059,-2.52344 -0.7497,-0.36576 -1.2046,-0.55364 -1.6563,-0.58203 l 0,0 z"
         id="path12265"
         inkscape:connector-curvature="0" />
      <path
         inkscape:connector-curvature="0"
         id="path12267"
         d="m 726.5818,317.45854 0,0.0195 c -0.4517,-0.0276 -0.9009,0.10777 -1.623,0.38281 -1.7927,0.68239 -3.5918,2.98997 -3.5918,4.60742 0,1.44267 -1.1309,3.50758 -2.2481,4.10546 -1.3454,0.72003 -3.7323,0.60572 -5.0234,-0.24023 -1.5107,-0.9898 -2.5409,-3.46469 -1.9219,-4.62109 0.7505,-1.40235 2.0847,-1.06877 2.8243,0.70117 0.5553,1.32916 0.8345,1.53657 1.8671,1.41796 1.4265,-0.16421 1.8058,-1.47257 0.9903,-3.44139 -0.9084,-2.19311 -3.3713,-3.25499 -5.9219,-2.55079 -1.8265,0.50437 -2.8168,1.88129 -3.3301,4.62891 -0.6478,3.46706 -3.2201,5.30296 -6.2558,4.46484 -2.5804,-0.71256 -4.2847,-4.30765 -2.6739,-5.64453 0.9305,-0.77214 1.9429,-0.23077 2.4864,1.32813 0.3792,1.08767 0.6824,1.32101 1.58,1.21288 1.749,-0.21063 2.1286,-1.26289 1.1602,-3.24608 -1.1261,-2.30672 -3.5092,-3.51232 -5.5879,-2.82618 -2.1721,0.71676 -3.3345,2.20261 -3.7422,4.78125 -0.4201,2.6574 -1.351,3.83805 -3.4941,4.42968 -1.236,0.34156 -1.8885,0.27505 -3.1133,-0.32422 -1.9555,-0.95674 -3.3645,-3.56412 -2.6504,-4.89842 0.7572,-1.41485 2.1496,-1.12366 2.8692,0.59765 0.6993,1.67371 1.3747,2.07686 2.5039,1.49608 1.5283,-0.78597 0.5199,-4.50568 -1.4922,-5.49803 -3.971,-1.95853 -6.7912,-0.1819 -7.584,4.77929 -0.5396,3.37693 -4.5825,5.04994 -7.5352,3.11523 -0.1296,-0.0845 -0.206,-0.12589 -0.3047,-0.18555 -1.444,-1.32295 -2.0488,-3.33544 -1.2461,-4.30272 0.7461,-0.89895 2.3292,-0.5961 2.5274,0.48047 0.3538,1.92416 2.0479,2.62254 3.1465,1.29881 0.7823,-0.9426 -0.1576,-3.9364 -1.5156,-4.82616 -3.8491,-2.5221 -7.8891,0.0728 -8.0977,5.20116 -0.018,0.43991 -0.6102,1.37773 -1.3145,2.08204 -2.8684,2.86835 -7.9218,0.7553 -7.9218,-3.31249 0,-2.14293 2.5641,-1.93382 3.08,0.25194 0.1933,0.81901 0.5368,1.05469 1.543,1.05469 1.1705,0 1.3061,-0.14949 1.4258,-1.58007 0.1,-1.19153 -0.1518,-1.92112 -1.0137,-2.94531 -2.9422,-3.49664 -8.5304,-1.29441 -8.5351,3.36327 0,2.2089 -2.3884,4.44922 -4.7422,4.44922 -3.0774,0 -5.9905,-3.63229 -4.4258,-5.51757 0.8008,-0.96492 2.297,-0.58258 2.5879,0.6582 0.5205,2.22107 3.103,2.31857 3.4297,0.13086 0.3857,-2.58265 -2.9297,-5.26523 -5.8321,-4.7207 -2.256,0.42327 -4.164,3.0752 -4.164,5.78905 0,0.63183 -0.5419,1.6433 -1.2774,2.37891 -1.0358,1.03586 -1.6554,1.28125 -3.25,1.28125 -2.5775,0 -4.6699,-1.88643 -4.6699,-4.21094 0,-2.48005 2.4966,-2.58645 3.0762,-0.13086 0.1934,0.81901 0.5387,1.05469 1.5449,1.05469 1.146,0 1.3061,-0.16716 1.4297,-1.45507 0.1757,-1.83111 -0.8318,-3.40229 -2.7734,-4.32813 -3.1262,-1.49081 -6.7743,0.99357 -6.7774,4.61913 0,2.20889 -2.3923,4.45313 -4.7461,4.45313 -3.0774,0 -5.9904,-3.63436 -4.4258,-5.51952 0.8008,-0.96492 2.3008,-0.5826 2.5918,0.6582 0.5204,2.22115 3.0952,2.3185 3.4219,0.13086 0.3857,-2.58272 -2.9238,-5.26523 -5.8262,-4.7207 -2.2562,0.42325 -4.1621,3.0752 -4.1621,5.78905 0,0.63183 -0.5437,1.63752 -1.2793,2.37305 -2.7624,2.76251 -7.9199,0.9096 -7.9199,-2.84766 0,-2.54816 2.4821,-2.71529 3.0742,-0.20703 0.1933,0.81909 0.5407,1.05469 1.5469,1.05469 1.1361,0 1.3086,-0.17422 1.4277,-1.40624 0.075,-0.77193 -0.084,-1.81446 -0.3554,-2.32032 -0.6308,-1.17901 -2.9921,-2.62144 -4.293,-2.62304 -2.607,-0.005 -4.9023,2.46722 -4.9023,5.27538 0,2.11763 -2.4386,4.36133 -4.7422,4.36133 -3.0772,0 -5.9903,-3.63244 -4.4258,-5.51757 0.8008,-0.96493 2.295,-0.58261 2.5859,0.6582 0.3362,1.43476 1.5254,2.15026 2.5254,1.52343 1.838,-1.15212 0.6501,-4.62751 -1.957,-5.71679 -3.3371,-1.39431 -6.3553,0.58086 -6.9512,4.55468 -0.4276,2.85152 -2.179,4.49805 -4.793,4.49805 -1.8472,0 -3.4717,-1.05877 -4.1914,-2.53516 -0.086,-0.52446 -0.1655,-1.0574 -0.2343,-1.45117 -0.056,-0.32358 -0.083,-0.61443 -0.086,-0.87304 0.4007,-1.82023 2.4806,-1.69955 3.0039,0.51757 0.1934,0.81909 0.5368,1.05469 1.543,1.05469 1.1363,0 1.3106,-0.17418 1.4297,-1.40624 0.075,-0.77193 -0.087,-1.81446 -0.3574,-2.32032 -0.6309,-1.17901 -2.9902,-2.62144 -4.291,-2.62304 -0.2417,-3.5e-4 -0.4772,0.0286 -0.7129,0.0703 -0.026,-0.0343 -0.058,-0.0586 -0.09,-0.0586 -0.073,0 -0.3311,0.1024 -0.6601,0.25 -0.2907,0.10596 -0.576,0.24223 -0.8438,0.40429 -0.023,0.0135 -0.039,0.0216 -0.064,0.0352 -0.4746,0.24526 -0.9174,0.65609 -1.3008,1.16406 -0.6666,0.81269 -1.1156,1.81692 -1.2129,2.88867 -0.037,0.25562 -0.057,0.51525 -0.057,0.76562 0,0.0276 -0.012,0.0624 -0.012,0.0957 -0.065,0.36722 -0.2072,0.77499 -0.4023,1.17188 -0.2545,0.44479 -0.6235,0.91434 -1.084,1.375 -1.7506,1.75048 -3.643,1.95846 -5.8008,0.64258 -1.6633,-1.01426 -2.7274,-3.63771 -1.8887,-4.64843 0.9015,-1.08627 2.2002,-0.76612 2.7442,0.67578 0.9241,2.44818 3.3711,2.06239 3.3711,-0.5332 0,-0.89931 -0.4673,-1.77393 -1.4942,-2.80079 -3.0292,-3.02924 -7.343,-1.39502 -8.1816,3.09375 -0.6808,3.64341 -2.1598,5.05468 -5.2891,5.05468 -1.9966,0 -4.411,-2.55836 -4.2265,-4.47655 0.1225,-1.27571 0.2857,-1.43359 1.4511,-1.43359 1.0162,0 1.3403,0.21361 1.4454,0.95117 0.1819,1.27689 1.1644,2.02866 2.2148,1.6953 1.1667,-0.36992 1.4022,-1.19313 0.8828,-3.07421 -0.4994,-1.80864 -2.5025,-3.29382 -4.4551,-3.29687 -2.8281,-0.003 -5.1269,2.46715 -5.1269,5.50781 0,1.68256 -2.5865,4.12694 -4.3613,4.12694 -2.0671,0 -3.9459,-1.16672 -4.6719,-2.90429 -0.8249,-1.9746 -0.4481,-3.22656 0.9785,-3.22656 0.8122,0 1.2038,0.32612 1.541,1.29297 0.8597,2.46639 3.4492,2.08597 3.4492,-0.50976 0,-0.90847 -0.4725,-1.77741 -1.5488,-2.85352 -1.4325,-1.43248 -1.6905,-1.52923 -3.5957,-1.31445 -1.5804,0.17804 -2.3397,0.54613 -3.2773,1.5957 -0.6705,0.7503 -1.2168,1.86055 -1.2168,2.4668 0,3.37078 -2.7522,5.85852 -5.8399,5.27928 -2.0827,-0.39068 -3.8912,-2.52365 -3.7109,-4.37499 0.1162,-1.19084 0.296,-1.36328 1.4394,-1.36328 0.9619,0 1.3531,0.23119 1.4727,0.875 0.3931,2.11709 2.3838,2.70138 3.1894,0.9336 0.3712,-0.81506 0.3075,-1.39374 -0.289,-2.65039 -2.2255,-4.68977 -8.6214,-3.19695 -9.336,1.71484 l 0,5.55858 c 1.9576,-0.78153 4.3479,-0.3298 5.6817,1.85742 0.9914,1.62577 1.0538,3.02204 0.1719,3.75391 -0.9188,0.76256 -1.9421,0.23529 -2.4668,-1.26953 -0.5721,-1.64101 -1.4092,-1.95472 -2.6172,-0.97656 -0.8736,0.70733 -0.9111,0.91848 -0.4278,2.38281 0.7377,2.23522 2.3303,3.37109 4.7227,3.37109 2.6216,0 4.3018,-1.62739 4.7461,-4.58984 0.2043,-1.36258 0.7422,-2.57766 1.5332,-3.46289 1.0277,-1.15017 1.5359,-1.36719 3.2187,-1.36719 1.5525,0 2.2463,0.24588 3.1075,1.10742 1.5222,1.52221 2.1242,3.72346 1.2578,4.58985 -1.0489,1.04904 -1.907,0.77051 -2.5782,-0.83594 -0.6993,-1.6737 -1.3786,-2.07679 -2.5078,-1.49609 -1.5865,0.81596 -0.4056,4.60518 1.7383,5.58203 0.5739,0.26118 1.7397,0.47265 2.5957,0.47265 2.1421,0 4.5349,-2.34563 4.5371,-4.44726 0,-3.45149 3.1741,-5.80117 6.3887,-4.74024 2.5459,0.84016 4.1619,4.378 2.5957,5.67774 -0.9171,0.76124 -1.939,0.23732 -2.4609,-1.25977 -0.5472,-1.56994 -1.8431,-1.98993 -2.8203,-0.91015 -0.6132,0.67755 -0.6428,1.04334 -0.209,2.35742 0.7215,2.1861 2.3234,3.32226 4.6992,3.32226 2.5465,0 4.267,-1.60229 4.7187,-4.40234 0.3971,-2.46204 1.1897,-3.71282 2.9161,-4.60547 2.6072,-1.3483 5.6047,0.1476 6.4921,3.24219 0.3015,1.05054 0.2376,1.54368 -0.2617,2.04297 -1.0874,1.08741 -2.0362,0.6625 -2.7597,-1.24024 -0.3775,-0.99277 -0.6917,-1.2022 -1.668,-1.08984 -0.8789,0.10112 -1.2435,0.42052 -1.3496,1.16992 -0.3672,2.59318 1.9623,4.88281 4.9648,4.88281 2.2063,0 4.5953,-2.31215 4.5977,-4.44726 0,-1.7333 0.8717,-3.23226 2.1191,-4.13477 2.6367,-1.59486 6.7006,-0.0206 7.3418,2.89453 0.6067,2.76182 -1.9742,3.63493 -3.0605,1.03516 -0.5056,-1.21016 -0.8648,-1.52709 -1.5996,-1.41797 -2.1115,0.31383 -2.1812,2.82088 -0.1368,4.86524 0.6257,0.62557 1.5643,1.22028 2.0879,1.32226 0.5237,0.10188 1.1046,0.20962 1.293,0.24219 0.828,0.14412 3.366,-1.267 3.9531,-2.19922 0.3539,-0.56254 0.7776,-1.95184 0.9375,-3.08594 0.2183,-1.55056 0.616,-2.34021 1.6114,-3.17773 3.0085,-2.53153 7.832,-0.66746 7.832,3.02734 0,2.53956 -2.4893,2.70076 -3.0742,0.19922 -0.1712,-0.73228 -0.5996,-1.09698 -1.4043,-1.19141 -1.5691,-0.1843 -2.1577,0.97475 -1.4981,2.94532 1.5822,4.72524 8.4757,4.12731 9.2871,-0.80469 0.648,-3.93893 1.8883,-5.28711 4.8555,-5.28711 2.2303,0 4.3253,1.55131 4.7598,3.5293 0.6014,2.73833 -1.9661,3.64105 -3.041,1.06836 -0.4051,-0.96935 -0.9386,-1.53125 -1.4512,-1.53125 -3.8236,0 -1.0738,6.18562 2.7949,6.28711 3.0609,0.0803 4.5973,-1.4435 5.2031,-5.15235 0.4246,-2.59853 2.262,-4.20117 4.8125,-4.20117 1.6787,0 2.2712,0.22989 3.3477,1.30664 1.068,1.06807 1.2814,1.60732 1.1699,2.95508 -0.1187,1.43109 -0.2784,1.65039 -1.2285,1.65039 -0.815,0 -1.2564,-0.36387 -1.7227,-1.42383 -0.4436,-1.00785 -0.9224,-1.42187 -1.6308,-1.42187 -1.4013,0 -1.9212,1.20196 -1.3106,3.02539 1.1172,3.3364 5.2168,4.41913 7.7051,2.03515 0.7903,-0.75735 1.4304,-1.90705 1.584,-2.83984 0.6479,-3.93893 1.8901,-5.28711 4.8574,-5.28711 2.2302,0 4.3273,1.55131 4.7617,3.5293 0.6015,2.73833 -1.9738,3.64097 -3.0488,1.06836 -0.6651,-1.59168 -1.7965,-2.00434 -2.7891,-1.01172 -0.8947,0.89461 -0.5805,2.44873 0.8106,4.0332 1.6205,1.84567 3.2954,2.28798 5.373,1.41992 1.9049,-0.79595 2.7478,-2.07298 3.125,-4.75 0.3882,-2.75419 2.1231,-4.28906 4.8496,-4.28906 2.5768,0 4.1196,1.32137 4.4551,3.82227 0.2024,1.51013 0.1041,1.91049 -0.5254,2.15234 -1.0295,0.3949 -2.1065,-0.33759 -2.4101,-1.63672 -0.1712,-0.73228 -0.5997,-1.09698 -1.4043,-1.19141 -1.5693,-0.1843 -2.1579,0.97469 -1.4981,2.94532 1.1171,3.3364 5.213,4.41913 7.7012,2.03515 0.7905,-0.75735 1.4325,-1.90705 1.5859,-2.83984 0.6481,-3.93893 1.8902,-5.28711 4.8575,-5.28711 2.2303,0 4.3233,1.55131 4.7578,3.5293 0.6064,2.76181 -1.9684,3.6329 -3.0547,1.0332 -0.5057,-1.21024 -0.8687,-1.52709 -1.6035,-1.41797 -2.0984,0.31175 -2.1824,2.81945 -0.1641,4.83789 1.5263,1.52615 3.4864,1.8486 5.377,0.88867 1.719,-0.87277 2.5555,-2.19382 2.955,-4.66992 0.4189,-2.59763 2.2598,-4.20117 4.8125,-4.20117 1.6788,0 2.2652,0.22989 3.3418,1.30664 0.2274,0.22722 0.3977,0.42336 0.5528,0.61524 0.064,0.0914 0.1355,0.17671 0.1914,0.26953 0.021,0.0276 0.037,0.0625 0.057,0.0918 0.1035,0.1822 0.1899,0.37042 0.2637,0.55469 0.1238,0.39626 0.1567,0.82712 0.1074,1.42383 -0.04,0.47872 -0.095,0.78672 -0.1719,1.03125 -0.1939,0.2501 -0.4625,0.42531 -0.8203,0.47656 -0.1759,0.0276 -0.3096,0.0703 -0.4297,0.11524 -0.6889,-0.0623 -1.1079,-0.43091 -1.541,-1.41602 -0.5116,-1.16299 -0.8509,-1.41922 -1.75,-1.31445 -0.9123,0.10595 -1.1417,0.3919 -1.2558,1.58008 -0.3931,4.09696 5.0323,6.2667 7.9804,3.18945 0.3501,-0.36512 0.655,-0.90179 0.9356,-1.52344 0.1034,-0.21268 0.1912,-0.43587 0.2715,-0.66797 0.2901,-0.79933 0.5494,-1.78483 0.7734,-2.9668 1.2053,-2.97491 4.4443,-4.11241 7.2051,-2.14648 1.4083,1.00273 2.2431,3.27268 1.6386,4.46289 -0.7292,1.43615 -2.9882,0.64577 -2.9882,-1.04492 0,-0.96722 -1.5975,-1.49316 -2.4317,-0.80078 -1.4815,1.22949 -0.3853,4.23138 1.9961,5.46289 1.6854,0.8716 3.0022,0.81925 4.6328,-0.17578 1.4107,-0.8603 2.1237,-2.23585 2.5723,-4.95117 0.3681,-2.22671 2.3582,-3.85938 4.6992,-3.85938 1.4269,0 2.0521,0.29069 3.2813,1.51953 1.2213,1.22126 1.4902,1.79987 1.3789,2.95703 -0.1226,1.27411 -0.2906,1.4375 -1.4492,1.4375 -0.9619,0 -1.3491,-0.23277 -1.4688,-0.87695 -0.3931,-2.11675 -2.3878,-2.69554 -3.1934,-0.92773 -1.1469,2.51724 2.3741,5.92971 5.5079,5.34179 2.2579,-0.42326 4.1875,-3.05921 4.1875,-5.7207 0,-1.61332 2.3922,-3.73047 4.2168,-3.73047 1.8163,0 3.9066,1.00318 4.5312,2.16992 0.7067,1.32046 0.5526,3.5154 -0.2676,3.83008 -0.9617,0.36925 -2.0968,-0.40517 -2.2656,-1.53711 -0.1666,-1.11705 -1.6392,-1.66522 -2.5137,-0.93945 -1.4815,1.22949 -0.3833,4.23138 1.9981,5.46289 1.6854,0.8716 3.0004,0.8192 4.6308,-0.17578 1.4108,-0.8603 2.1257,-2.23585 2.5743,-4.95117 0.3679,-2.22671 2.3522,-3.85938 4.6933,-3.85938 1.4269,0 2.0539,0.29068 3.2832,1.51953 1.2212,1.22125 1.4902,1.7998 1.3789,2.95703 -0.1226,1.27412 -0.2848,1.4375 -1.4433,1.4375 -0.962,0 -1.355,-0.23278 -1.4746,-0.87695 -0.3929,-2.11703 -2.3841,-2.69554 -3.1895,-0.92773 -0.6591,1.44639 0.543,3.86811 2.4199,4.8789 2.9535,1.59056 6.4622,-0.4319 7.0762,-4.07422 0.4728,-2.80469 0.6777,-3.19929 2.0996,-4.0664 1.823,-1.11157 4.2468,-1.08927 5.7012,0.0547 1.3171,1.03609 2.0952,3.32706 1.5176,4.46485 -0.7293,1.43614 -2.9883,0.64576 -2.9883,-1.04492 0,-0.96721 -1.5935,-1.49124 -2.4278,-0.79883 -1.4814,1.22947 -0.3854,4.22943 1.9961,5.46094 1.6854,0.87159 2.9944,0.82266 4.625,-0.17188 1.4107,-0.86037 2.1334,-2.23389 2.5821,-4.94922 0.3678,-2.22669 2.3503,-3.86523 4.6914,-3.86523 1.4267,0 2.048,0.29262 3.2773,1.52148 1.2211,1.22127 1.498,1.79986 1.3867,2.95703 -0.1226,1.27419 -0.2927,1.43555 -1.4511,1.43555 -0.962,0 -1.3492,-0.22925 -1.4688,-0.87305 -0.3931,-2.11703 -2.3839,-2.69942 -3.1894,-0.93164 -0.3676,0.80691 -0.3177,1.37981 0.2324,2.53907 2.1945,4.62466 8.527,3.40804 9.2793,-1.78321 0.3814,-2.63183 0.811,-3.4045 2.3594,-4.20508 1.7972,-0.92945 4.0629,-0.82617 5.4238,0.24414 2.0686,1.62717 2.2887,5.23047 0.3203,5.23047 -0.938,0 -1.6301,-0.72965 -1.8594,-1.96484 -0.3644,-1.96392 -2.998,-1.0442 -2.998,1.04687 0,2.16366 2.5124,4.42659 4.9082,4.42188 2.526,-0.005 4.3244,-2.11025 4.9297,-5.77344 0.1689,-1.02221 0.69,-1.92822 1.5371,-2.68164 0.045,-0.0416 0.07,-0.0558 0.1211,-0.10351 0.7111,-0.64363 1.8055,-0.99444 2.9121,-1.01954 0.1781,0.008 0.3658,0.0279 0.5761,0.0488 0.2186,0.0209 0.4046,0.0409 0.5801,0.0547 0.413,0.0811 0.8068,0.21025 1.1641,0.39453 2.4651,1.27474 3.474,4.9544 1.5586,5.68945 -0.9032,0.34641 -1.7557,-0.34063 -2.0957,-1.69531 -0.1781,-0.70919 -0.6268,-1.12952 -1.1387,-1.30078 -0.6826,-0.38522 -1.6602,-0.19726 -2.0762,0.58008 -0.6683,1.24874 0.1751,3.31713 1.6172,4.52344 0.3407,0.35956 0.6941,0.64492 1.0137,0.77343 0.5406,0.21758 1.6419,0.40859 2.4492,0.42383 1.8588,0.0343 4.4473,-2.35639 4.4473,-4.10742 0,-3.10937 2.2921,-5.50586 5.2734,-5.50586 2.8725,0 5.6372,4.52698 3.7305,6.10938 -0.847,0.70282 -2.3282,-0.0934 -2.5156,-1.35352 -0.1987,-1.33585 -1.409,-2.0115 -2.2911,-1.2793 -1.4113,1.17129 -0.58,4.2118 1.4883,5.4336 3.3109,1.95589 7.4551,-0.53368 7.4551,-4.47657 0,-1.80851 1.8581,-3.89452 3.7949,-4.25781 2.9956,-0.56185 6.3074,2.28234 5.6602,4.86133 -0.5022,2.00072 -2.5238,1.73442 -3.0606,-0.4043 -0.3147,-1.25347 -1.3532,-1.71876 -2.4882,-1.11132 -1.0124,0.54176 -1.0747,1.7632 -0.1856,3.48242 1.5831,3.06152 5.0457,3.58902 7.4922,1.14258 0.9394,-0.93937 1.4883,-1.9134 1.4883,-2.64063 0,-3.10937 2.2999,-5.50586 5.2812,-5.50586 2.9282,0 5.7979,4.8478 3.5996,6.07813 -0.9846,0.55076 -2.3086,-0.15147 -2.3086,-1.22071 0,-1.12085 -1.0971,-1.92058 -2.1699,-1.58008 -0.6812,0.21614 -0.8965,0.65714 -0.8965,1.83204 0,2.05384 2.3537,4.53125 4.3086,4.53125 3.0739,0 5.3266,-2.19489 5.3301,-5.19336 0,-2.00236 2.3941,-4.44727 4.3555,-4.44727 2.0671,0 3.9498,1.17264 4.6758,2.91016 0.7114,1.7026 0.4938,2.99935 -0.5664,3.40625 -0.8803,0.33808 -1.7354,-0.35632 -2.0684,-1.6836 -0.3146,-1.25347 -1.3511,-1.71876 -2.4863,-1.11132 -1.0845,0.58057 -1.0704,2.01489 0.035,3.82812 0.9501,1.55837 2.3671,2.29102 4.4473,2.29102 1.7244,0 4.3086,-2.48101 4.3086,-4.13477 0,-2.30733 1.2691,-4.21844 3.1406,-5.05273 l 0,-4.88476 c -0.2537,1.07818 -0.7451,2.09204 -1.4062,2.83202 -1.0352,1.15869 -1.5277,1.36328 -3.2618,1.36328 -1.7543,0 -2.2228,-0.19894 -3.3203,-1.42773 -1.3819,-1.54675 -1.6932,-3.59514 -0.6758,-4.43944 0.8419,-0.69883 1.9835,-0.14348 2.2989,1.11328 0.5838,2.32554 3.2285,2.21174 3.2285,-0.13868 0,-5.53345 -8.5474,-6.13754 -9.4219,-0.66601 -0.7033,4.40169 -3.0394,6.3811 -6.3516,5.38866 -2.9125,-0.87255 -4.6218,-4.66943 -2.5917,-5.75585 1.0896,-0.58336 1.9426,-0.028 2.33,1.51563 0.3192,1.27208 1.3552,1.7164 2.5371,1.08397 1.3111,-0.70178 0.8101,-3.30222 -0.9453,-4.88476 -2.5746,-2.32092 -6.9559,-1.11175 -7.8672,2.16993 -0.2543,0.91601 -0.4575,2.00208 -0.4589,2.41991 0,0.41779 -0.5842,1.40648 -1.2872,2.19336 -1.0976,1.22825 -1.5642,1.42773 -3.3183,1.42773 -1.7541,0 -2.2267,-0.19894 -3.3242,-1.42773 -1.396,-1.56241 -1.6909,-3.59562 -0.6485,-4.46093 0.8471,-0.70283 2.3302,0.0954 2.5176,1.35547 0.3332,2.23972 2.9883,1.95852 2.9883,-0.31641 0,-5.56913 -8.5306,-6.20807 -9.4395,-0.70703 -0.6053,3.66318 -2.4039,5.77076 -4.9297,5.77538 -3.3682,0.006 -6.5021,-4.8064 -4.0019,-6.14452 1.0897,-0.58334 1.9466,-0.028 2.334,1.51563 0.4404,1.75417 2.5849,1.92358 3.1172,0.24609 0.7857,-2.47534 -1.7637,-5.25391 -4.8203,-5.25391 -2.5553,0 -4.4215,1.7857 -4.8497,4.64063 -0.573,3.821 -3.7447,5.90155 -6.6816,4.3828 -1.6876,-0.8727 -2.709,-2.30599 -2.709,-3.80663 0,-2.41993 2.2072,-2.68228 3.0176,-0.35742 0.8562,2.45614 3.126,1.98831 3.1074,-0.64063 -0.021,-2.94076 -3.1465,-4.74701 -5.8691,-4.07812 -0.415,-0.20021 -1.1227,0.17712 -2.1856,1.12695 -0.9971,0.89109 -1.4171,1.71761 -1.6054,3.17578 -0.3252,2.51753 -1.5564,4.2677 -3.3321,4.74023 -2.6559,0.70671 -5.2612,-0.68155 -5.9375,-3.16797 -0.7976,-2.93158 1.6233,-4.08421 2.7774,-1.32226 0.5553,1.32918 0.8345,1.54234 1.8672,1.42382 0.889,-0.10187 1.2529,-0.41649 1.3593,-1.16796 0.49,-3.46042 -3.4805,-6.1714 -6.7558,-4.61719 -1.705,0.8091 -2.5579,2.16677 -2.9512,4.7129 -0.6203,4.01651 -5.0758,5.76341 -7.9375,3.11131 -1.9773,-1.83263 -1.9641,-4.80467 0.021,-4.80467 0.5116,0 1.0673,0.53573 1.4492,1.40234 0.763,1.73314 1.4065,2.0104 2.6484,1.14061 0.7414,-0.5196 0.8985,-0.93731 0.6797,-1.82811 -1.0434,-4.24584 -5.6077,-5.59829 -8.5,-2.51953 -0.562,0.59788 -1.105,1.94961 -1.3144,3.27539 -0.4202,2.65739 -1.3473,3.83999 -3.4903,4.43163 -1.236,0.34157 -1.8865,0.27505 -3.1113,-0.32422 -1.9554,-0.95674 -3.3723,-3.56605 -2.6582,-4.90038 0.7572,-1.41481 2.1538,-1.1263 2.8731,0.5957 0.3431,0.82123 0.8743,1.58717 1.1816,1.69726 0.9776,0.34984 2.0898,-0.55308 2.0898,-1.69335 0,-3.19424 -3.0938,-5.40455 -6.3203,-4.51367 -1.8738,0.51752 -2.8587,1.87609 -3.3808,4.66992 -0.6311,3.37873 -3.3149,5.2147 -6.4141,4.39062 -2.449,-0.65123 -4.0526,-4.31702 -2.4648,-5.63476 0.8921,-0.7404 2.0401,-0.0791 2.3847,1.38086 0.1907,0.80779 0.5366,1.05858 1.4922,1.05858 1.8595,0 2.3052,-1.06039 1.3028,-3.11327 -0.5476,-1.12176 -1.4084,-1.98741 -2.5059,-2.52344 -0.7497,-0.36577 -1.2046,-0.55168 -1.6563,-0.58007 l 0,0 z m 0,21.3828 0,0.0215 c -0.4517,-0.0276 -0.9009,0.10583 -1.623,0.38086 -1.7927,0.6824 -3.5918,2.98998 -3.5918,4.60742 0,1.44268 -1.1309,3.50955 -2.2481,4.10743 -1.3454,0.72002 -3.7323,0.60376 -5.0234,-0.24219 -1.5107,-0.98979 -2.5409,-3.46468 -1.9219,-4.6211 0.7505,-1.40233 2.0847,-1.06876 2.8243,0.70118 0.5553,1.32917 0.8345,1.53657 1.8671,1.41796 1.4265,-0.1642 1.8058,-1.47062 0.9903,-3.43945 -0.9084,-2.19311 -3.3713,-3.255 -5.9219,-2.55078 -1.8265,0.50436 -2.8168,1.87934 -3.3301,4.62695 -0.6478,3.46708 -3.2201,5.30493 -6.2558,4.4668 -2.5804,-0.71254 -4.2847,-4.30961 -2.6739,-5.64648 0.9305,-0.77214 1.9429,-0.22883 2.4864,1.33007 0.3792,1.08769 0.6824,1.31907 1.58,1.21094 1.749,-0.21061 2.1286,-1.2629 1.1602,-3.24609 -1.1261,-2.30671 -3.5092,-3.51036 -5.5879,-2.82422 -2.1721,0.71676 -3.3345,2.20066 -3.7422,4.7793 -0.4201,2.6574 -1.351,3.83805 -3.4941,4.42968 -1.236,0.34156 -1.8885,0.27504 -3.1133,-0.32422 -1.9555,-0.95675 -3.3645,-3.56412 -2.6504,-4.89843 0.7572,-1.41484 2.1496,-1.12365 2.8692,0.59765 0.6993,1.67372 1.3747,2.07686 2.5039,1.4961 1.5283,-0.78597 0.5199,-4.5057 -1.4922,-5.49805 -3.971,-1.95853 -6.7912,-0.17994 -7.584,4.78125 -0.5396,3.37695 -4.5825,5.04799 -7.5352,3.11328 -0.1296,-0.0845 -0.206,-0.12394 -0.3047,-0.18359 -1.444,-1.32295 -2.0488,-3.33741 -1.2461,-4.30469 0.7461,-0.89895 2.3292,-0.59416 2.5274,0.48242 0.3538,1.92416 2.0479,2.62255 3.1465,1.29883 0.7823,-0.9426 -0.1576,-3.93837 -1.5156,-4.82812 -3.8491,-2.5221 -7.8891,0.0728 -8.0977,5.20117 -0.018,0.43989 -0.6102,1.37773 -1.3145,2.08203 -2.8684,2.86835 -7.9218,0.75725 -7.9218,-3.31055 0,-2.14293 2.5641,-1.93382 3.08,0.25195 0.1933,0.81901 0.5368,1.05469 1.543,1.05469 1.1705,0 1.3061,-0.15144 1.4258,-1.58203 0.1,-1.19153 -0.1518,-1.91916 -1.0137,-2.94336 -2.9422,-3.49664 -8.5304,-1.29441 -8.5351,3.36328 0,2.2089 -2.3884,4.44727 -4.7422,4.44727 -3.0774,0 -5.9905,-3.6323 -4.4258,-5.51758 0.8008,-0.96492 2.297,-0.58258 2.5879,0.6582 0.5205,2.22107 3.103,2.32053 3.4297,0.13282 0.3857,-2.58266 -2.9297,-5.26718 -5.8321,-4.72266 -2.256,0.42327 -4.164,3.0752 -4.164,5.78906 0,0.63183 -0.5419,1.6433 -1.2774,2.37891 -1.0358,1.03586 -1.6554,1.28125 -3.25,1.28125 -2.5775,0 -4.6699,-1.88642 -4.6699,-4.21094 0,-2.48006 2.4966,-2.58451 3.0762,-0.12891 0.1934,0.81901 0.5387,1.05469 1.5449,1.05469 1.146,0 1.3061,-0.16911 1.4297,-1.45703 0.1757,-1.83111 -0.8318,-3.40228 -2.7734,-4.32812 -3.1262,-1.49082 -6.7743,0.99551 -6.7774,4.62109 0,2.20889 -2.3923,4.45312 -4.7461,4.45312 -3.0774,0 -5.9904,-3.63632 -4.4258,-5.52148 0.8008,-0.96492 2.3008,-0.5826 2.5918,0.6582 0.5204,2.22115 3.0952,2.32046 3.4219,0.13282 0.3857,-2.58273 -2.9238,-5.26718 -5.8262,-4.72266 -2.2562,0.42325 -4.1621,3.0752 -4.1621,5.78906 0,0.63183 -0.5437,1.63948 -1.2793,2.375 -2.7624,2.76252 -7.9199,0.90961 -7.9199,-2.84765 0,-2.54817 2.4821,-2.71532 3.0742,-0.20704 0.1933,0.81908 0.5407,1.05469 1.5469,1.05469 1.1361,0 1.3086,-0.17421 1.4277,-1.40625 0.075,-0.77193 -0.084,-1.81641 -0.3554,-2.32226 -0.6308,-1.17902 -2.9921,-2.62145 -4.293,-2.62305 -2.607,-0.005 -4.9023,2.46722 -4.9023,5.27539 0,2.11763 -2.4386,4.36133 -4.7422,4.36133 -3.0772,0 -5.9903,-3.63243 -4.4258,-5.51758 0.8008,-0.96492 2.295,-0.5826 2.5859,0.6582 0.3362,1.43477 1.5254,2.15028 2.5254,1.52344 1.838,-1.15211 0.6501,-4.62752 -1.957,-5.7168 -3.3371,-1.39431 -6.3553,0.58086 -6.9512,4.55469 -0.4276,2.85152 -2.179,4.49805 -4.793,4.49805 -1.8472,0 -3.4717,-1.05877 -4.1914,-2.53516 -0.086,-0.52446 -0.1655,-1.0574 -0.2343,-1.45117 -0.056,-0.32357 -0.083,-0.61443 -0.086,-0.87305 0.4007,-1.82023 2.4806,-1.69761 3.0039,0.51953 0.1934,0.81908 0.5368,1.05469 1.543,1.05469 1.1363,0 1.3106,-0.17417 1.4297,-1.40625 0.075,-0.77193 -0.087,-1.81641 -0.3574,-2.32226 -0.6309,-1.17902 -2.9902,-2.62145 -4.291,-2.62305 -0.2417,-3.5e-4 -0.4772,0.0286 -0.7129,0.0703 -0.026,-0.0343 -0.058,-0.0566 -0.09,-0.0566 -0.073,0 -0.3311,0.10045 -0.6601,0.24805 -0.2907,0.10596 -0.576,0.24223 -0.8438,0.4043 -0.023,0.0135 -0.039,0.0215 -0.064,0.0351 -0.4746,0.24526 -0.9174,0.6561 -1.3008,1.16406 -0.6666,0.81269 -1.1156,1.81888 -1.2129,2.89063 -0.037,0.25562 -0.057,0.51525 -0.057,0.76562 0,0.0276 -0.012,0.0606 -0.012,0.0937 -0.065,0.36723 -0.2072,0.77499 -0.4023,1.17188 -0.2545,0.44479 -0.6235,0.9163 -1.084,1.37695 -1.7506,1.75049 -3.643,1.95652 -5.8008,0.64063 -1.6633,-1.01424 -2.7274,-3.63772 -1.8887,-4.64844 0.9015,-1.08627 2.2002,-0.76612 2.7442,0.67578 0.9241,2.44819 3.3711,2.0624 3.3711,-0.5332 0,-0.89932 -0.4673,-1.77392 -1.4942,-2.80078 -3.0292,-3.02924 -7.343,-1.39308 -8.1816,3.0957 -0.6808,3.64341 -2.1598,5.05273 -5.2891,5.05273 -1.9966,0 -4.411,-2.55642 -4.2265,-4.47461 0.1225,-1.27571 0.2857,-1.43359 1.4511,-1.43359 1.0162,0 1.3403,0.21165 1.4454,0.94922 0.1819,1.27688 1.1644,2.02868 2.2148,1.69531 1.1667,-0.36992 1.4022,-1.19314 0.8828,-3.07422 -0.4994,-1.80864 -2.5025,-3.29383 -4.4551,-3.29687 -2.8281,-0.003 -5.1269,2.46911 -5.1269,5.50976 0,1.68258 -2.5865,4.125 -4.3613,4.125 -2.0671,0 -3.9459,-1.16671 -4.6719,-2.90429 -0.8249,-1.9746 -0.4481,-3.22657 0.9785,-3.22657 0.8122,0 1.2038,0.32808 1.541,1.29493 0.8597,2.4664 3.4492,2.08402 3.4492,-0.51172 0,-0.90847 -0.4725,-1.77545 -1.5488,-2.85156 -1.4325,-1.43249 -1.6905,-1.52923 -3.5957,-1.31446 -1.5804,0.17804 -2.3397,0.54613 -3.2773,1.59571 -0.6705,0.75031 -1.2168,1.85859 -1.2168,2.46484 0,3.37079 -2.7522,5.85853 -5.8399,5.2793 -2.0827,-0.39069 -3.8912,-2.52171 -3.7109,-4.37305 0.1162,-1.19085 0.296,-1.36524 1.4394,-1.36524 0.9619,0 1.3531,0.23314 1.4727,0.87696 0.3931,2.11709 2.3838,2.69944 3.1894,0.93164 0.3712,-0.81506 0.3075,-1.39374 -0.289,-2.65039 -2.2255,-4.68977 -8.6214,-3.19518 -9.336,1.71679 l 0,5.5586 c 1.9577,-0.78173 4.3479,-0.33189 5.6817,1.85547 0.9914,1.62576 1.0538,3.02399 0.1719,3.75586 -0.9188,0.76256 -1.9421,0.23528 -2.4668,-1.26953 -0.5721,-1.64102 -1.4092,-1.95668 -2.6172,-0.97852 -0.8736,0.70734 -0.9111,0.92043 -0.4278,2.38477 0.7377,2.23522 2.3303,3.37109 4.7227,3.37109 2.6216,0 4.3018,-1.62739 4.7461,-4.58984 0.2043,-1.36258 0.7422,-2.57962 1.5332,-3.46485 1.0277,-1.15017 1.5359,-1.36523 3.2187,-1.36523 1.5525,0 2.2463,0.24588 3.1075,1.10742 1.5222,1.52221 2.1242,3.72345 1.2578,4.58984 -1.0489,1.04904 -1.907,0.76856 -2.5782,-0.83789 -0.6993,-1.6737 -1.3786,-2.07679 -2.5078,-1.49609 -1.5865,0.81596 -0.4056,4.60519 1.7383,5.58203 0.5739,0.26119 1.7397,0.47461 2.5957,0.47461 2.1421,0 4.5349,-2.34759 4.5371,-4.44922 0,-3.45149 3.1741,-5.80117 6.3887,-4.74023 2.5459,0.84015 4.1619,4.37799 2.5957,5.67773 -0.9171,0.76125 -1.939,0.23928 -2.4609,-1.25781 -0.5472,-1.56994 -1.8431,-1.98993 -2.8203,-0.91016 -0.6132,0.67756 -0.6428,1.0414 -0.209,2.35547 0.7215,2.1861 2.3234,3.32422 4.6992,3.32422 2.5465,0 4.267,-1.60425 4.7187,-4.4043 0.3971,-2.46204 1.1897,-3.71282 2.9161,-4.60547 2.6072,-1.3483 5.6047,0.1476 6.4921,3.24219 0.3015,1.05055 0.2376,1.54563 -0.2617,2.04492 -1.0874,1.08742 -2.0362,0.66056 -2.7597,-1.24218 -0.3775,-0.99278 -0.6917,-1.20221 -1.668,-1.08985 -0.8789,0.10112 -1.2435,0.42052 -1.3496,1.16992 -0.3672,2.59319 1.9623,4.88477 4.9648,4.88477 2.2063,0 4.5953,-2.31411 4.5977,-4.44922 0,-1.73329 0.8717,-3.2303 2.1191,-4.13281 2.6367,-1.59486 6.7006,-0.0206 7.3418,2.89453 0.6067,2.76182 -1.9742,3.63493 -3.0605,1.03516 -0.5056,-1.21017 -0.8648,-1.52905 -1.5996,-1.41993 -2.1115,0.31384 -2.1812,2.82088 -0.1368,4.86524 0.6257,0.62558 1.5643,1.22224 2.0879,1.32422 0.5237,0.10187 1.1046,0.20962 1.293,0.24218 0.828,0.14412 3.366,-1.26699 3.9531,-2.19921 0.3539,-0.56255 0.7776,-1.9538 0.9375,-3.0879 0.2183,-1.55057 0.616,-2.33825 1.6114,-3.17578 3.0085,-2.53153 7.832,-0.66745 7.832,3.02735 0,2.53955 -2.4893,2.70076 -3.0742,0.19922 -0.1712,-0.73229 -0.5996,-1.09698 -1.4043,-1.19141 -1.5691,-0.18429 -2.1577,0.97279 -1.4981,2.94336 1.5822,4.72525 8.4757,4.12731 9.2871,-0.80469 0.648,-3.93892 1.8883,-5.28711 4.8555,-5.28711 2.2303,0 4.3253,1.55132 4.7598,3.5293 0.6014,2.73833 -1.9661,3.643 -3.041,1.07031 -0.4051,-0.96933 -0.9386,-1.53125 -1.4512,-1.53125 -3.8236,0 -1.0738,6.18366 2.7949,6.28516 3.0609,0.0803 4.5973,-1.44155 5.2031,-5.15039 0.4246,-2.59853 2.262,-4.20313 4.8125,-4.20313 1.6787,0 2.2712,0.22989 3.3477,1.30664 1.068,1.06807 1.2814,1.60732 1.1699,2.95508 -0.1187,1.43109 -0.2784,1.65039 -1.2285,1.65039 -0.815,0 -1.2564,-0.36387 -1.7227,-1.42383 -0.4436,-1.00785 -0.9224,-1.41992 -1.6308,-1.41992 -1.4013,0 -1.9212,1.20001 -1.3106,3.02344 1.1172,3.33641 5.2168,4.41912 7.7051,2.03516 0.7903,-0.75737 1.4304,-1.90705 1.584,-2.83985 0.6479,-3.93892 1.8901,-5.28711 4.8574,-5.28711 2.2302,0 4.3273,1.55132 4.7617,3.5293 0.6015,2.73833 -1.9738,3.64292 -3.0488,1.07031 -0.6651,-1.59168 -1.7965,-2.0063 -2.7891,-1.01367 -0.8947,0.8946 -0.5805,2.45068 0.8106,4.03516 1.6205,1.84565 3.2954,2.28602 5.373,1.41796 1.9049,-0.79596 2.7478,-2.07299 3.125,-4.75 0.3882,-2.7542 2.1231,-4.28906 4.8496,-4.28906 2.5768,0 4.1196,1.32137 4.4551,3.82227 0.2024,1.51014 0.1041,1.91049 -0.5254,2.15234 -1.0295,0.3949 -2.1065,-0.33564 -2.4101,-1.63476 -0.1712,-0.73229 -0.5997,-1.09698 -1.4043,-1.19141 -1.5693,-0.18429 -2.1579,0.97273 -1.4981,2.94336 1.1171,3.33641 5.213,4.41912 7.7012,2.03516 0.7905,-0.75737 1.4325,-1.90705 1.5859,-2.83985 0.6481,-3.93892 1.8902,-5.28711 4.8575,-5.28711 2.2303,0 4.3233,1.55132 4.7578,3.5293 0.6064,2.76182 -1.9684,3.63485 -3.0547,1.03516 -0.5057,-1.21025 -0.8687,-1.52905 -1.6035,-1.41993 -2.0984,0.31175 -2.1824,2.81945 -0.1641,4.83789 1.5263,1.52615 3.4864,1.85056 5.377,0.89063 1.719,-0.87278 2.5555,-2.19383 2.955,-4.66992 0.4189,-2.59763 2.2598,-4.20313 4.8125,-4.20313 1.6788,0 2.2652,0.22989 3.3418,1.30664 0.2274,0.22722 0.3977,0.42531 0.5528,0.61719 0.064,0.0914 0.1355,0.17671 0.1914,0.26953 0.021,0.0276 0.037,0.0626 0.057,0.0918 0.1035,0.1822 0.1899,0.36846 0.2637,0.55273 0.1238,0.39628 0.1567,0.82713 0.1074,1.42383 -0.04,0.47872 -0.095,0.78867 -0.1719,1.0332 -0.1939,0.25011 -0.4625,0.42531 -0.8203,0.47657 -0.1759,0.0276 -0.3096,0.0683 -0.4297,0.11328 -0.6889,-0.0623 -1.1079,-0.43091 -1.541,-1.41602 -0.5116,-1.16299 -0.8509,-1.41922 -1.75,-1.31445 -0.9123,0.10596 -1.1417,0.39386 -1.2558,1.58203 -0.3931,4.09696 5.0323,6.2667 7.9804,3.18945 0.3501,-0.36512 0.655,-0.90373 0.9356,-1.52539 0.1034,-0.21268 0.1912,-0.43587 0.2715,-0.66797 0.2901,-0.79932 0.5494,-1.78483 0.7734,-2.96679 1.2053,-2.97492 4.4443,-4.11242 7.2051,-2.14649 1.4083,1.00274 2.2431,3.27268 1.6386,4.46289 -0.7292,1.43615 -2.9882,0.64577 -2.9882,-1.04492 0,-0.9672 -1.5975,-1.49316 -2.4317,-0.80078 -1.4815,1.22949 -0.3853,4.23334 1.9961,5.46484 1.6854,0.8716 3.0022,0.8173 4.6328,-0.17773 1.4107,-0.8603 2.1237,-2.23389 2.5723,-4.94922 0.3681,-2.2267 2.3582,-3.85937 4.6992,-3.85937 1.4269,0 2.0521,0.28873 3.2813,1.51757 1.2213,1.22126 1.4902,1.79986 1.3789,2.95704 -0.1226,1.2741 -0.2906,1.43945 -1.4492,1.43945 -0.9619,0 -1.3491,-0.23474 -1.4688,-0.87891 -0.3931,-2.11675 -2.3878,-2.69553 -3.1934,-0.92773 -1.1469,2.51725 2.3741,5.9297 5.5079,5.34179 2.2579,-0.42327 4.1875,-3.05921 4.1875,-5.7207 0,-1.61332 2.3922,-3.72851 4.2168,-3.72851 1.8163,0 3.9066,1.00123 4.5312,2.16796 0.7067,1.32047 0.5526,3.5154 -0.2676,3.83008 -0.9617,0.36925 -2.0968,-0.40322 -2.2656,-1.53515 -0.1666,-1.11705 -1.6392,-1.66718 -2.5137,-0.94141 -1.4815,1.22949 -0.3833,4.23334 1.9981,5.46484 1.6854,0.8716 3.0004,0.81725 4.6308,-0.17773 1.4108,-0.8603 2.1257,-2.23389 2.5743,-4.94922 0.3679,-2.2267 2.3522,-3.85937 4.6933,-3.85937 1.4269,0 2.0539,0.28873 3.2832,1.51757 1.2212,1.22126 1.4902,1.7998 1.3789,2.95704 -0.1226,1.27411 -0.2848,1.43945 -1.4433,1.43945 -0.962,0 -1.355,-0.23474 -1.4746,-0.87891 -0.3929,-2.11703 -2.3841,-2.69553 -3.1895,-0.92773 -0.6591,1.44639 0.543,3.87006 2.4199,4.88086 2.9535,1.59056 6.4622,-0.43191 7.0762,-4.07422 0.4728,-2.8047 0.6777,-3.1993 2.0996,-4.06641 1.823,-1.11156 4.2468,-1.08925 5.7012,0.0547 1.3171,1.03608 2.0952,3.32511 1.5176,4.46289 -0.7293,1.43614 -2.9883,0.64576 -2.9883,-1.04492 0,-0.96721 -1.5935,-1.49123 -2.4278,-0.79883 -1.4814,1.22947 -0.3854,4.22943 1.9961,5.46094 1.6854,0.87159 2.9944,0.82266 4.625,-0.17188 1.4107,-0.86036 2.1334,-2.23389 2.5821,-4.94922 0.3678,-2.22669 2.3503,-3.86523 4.6914,-3.86523 1.4267,0 2.048,0.29262 3.2773,1.52148 1.2211,1.22127 1.498,1.79986 1.3867,2.95704 -0.1226,1.27418 -0.2927,1.43554 -1.4511,1.43554 -0.962,0 -1.3492,-0.22729 -1.4688,-0.87109 -0.3931,-2.11703 -2.3839,-2.70138 -3.1894,-0.9336 -0.3676,0.80691 -0.3177,1.37981 0.2324,2.53907 2.1945,4.62466 8.527,3.40805 9.2793,-1.78321 0.3814,-2.63183 0.811,-3.40254 2.3594,-4.20312 1.7972,-0.92945 4.0629,-0.82618 5.4238,0.24414 2.0686,1.62717 2.2887,5.22852 0.3203,5.22852 -0.938,0 -1.6301,-0.72966 -1.8594,-1.96485 -0.3644,-1.96392 -2.998,-1.04419 -2.998,1.04688 0,2.16365 2.5124,4.42853 4.9082,4.42382 2.526,-0.005 4.3244,-2.1122 4.9297,-5.77539 0.1689,-1.02221 0.69,-1.92627 1.5371,-2.67968 0.045,-0.0416 0.07,-0.0577 0.1211,-0.10547 0.7111,-0.64363 1.8055,-0.99443 2.9121,-1.01953 0.1781,0.008 0.3658,0.0298 0.5761,0.0508 0.2186,0.0208 0.4046,0.0409 0.5801,0.0547 0.413,0.0811 0.8068,0.20829 1.1641,0.39257 2.4651,1.27474 3.474,4.95636 1.5586,5.69141 -0.9032,0.34641 -1.7557,-0.34063 -2.0957,-1.69531 -0.1781,-0.7092 -0.6268,-1.13148 -1.1387,-1.30274 -0.6826,-0.38522 -1.6602,-0.1953 -2.0762,0.58203 -0.6683,1.24875 0.1751,3.31518 1.6172,4.52149 0.3407,0.35956 0.6941,0.64492 1.0137,0.77344 0.5406,0.21757 1.6419,0.40858 2.4492,0.42382 1.8588,0.0343 4.4473,-2.35444 4.4473,-4.10546 0,-3.10938 2.2921,-5.50586 5.2734,-5.50586 2.8725,0 5.6372,4.52698 3.7305,6.10937 -0.847,0.70283 -2.3282,-0.0954 -2.5156,-1.35547 -0.1987,-1.33584 -1.409,-2.0115 -2.2911,-1.27929 -1.4113,1.17128 -0.58,4.21179 1.4883,5.43359 3.3109,1.95589 7.4551,-0.53173 7.4551,-4.47461 0,-1.80853 1.8581,-3.89648 3.7949,-4.25977 2.9956,-0.56185 6.3074,2.28429 5.6602,4.86329 -0.5022,2.00071 -2.5238,1.73443 -3.0606,-0.4043 -0.3147,-1.25348 -1.3532,-1.72072 -2.4882,-1.11328 -1.0124,0.54176 -1.0747,1.76515 -0.1856,3.48437 1.5831,3.06152 5.0457,3.58708 7.4922,1.14063 0.9394,-0.93935 1.4883,-1.91145 1.4883,-2.63867 0,-3.10939 2.2999,-5.50586 5.2812,-5.50586 2.9282,0 5.7979,4.84584 3.5996,6.07617 -0.9846,0.55076 -2.3086,-0.14951 -2.3086,-1.21875 0,-1.12086 -1.0971,-1.92253 -2.1699,-1.58203 -0.6812,0.21613 -0.8965,0.65909 -0.8965,1.83398 0,2.05384 2.3537,4.5293 4.3086,4.5293 3.0739,0 5.3266,-2.19489 5.3301,-5.19336 0,-2.00236 2.3941,-4.44531 4.3555,-4.44531 2.0671,0 3.9498,1.17264 4.6758,2.91015 0.7114,1.70261 0.4938,2.9974 -0.5664,3.4043 -0.8803,0.33809 -1.7354,-0.35437 -2.0684,-1.68164 -0.3146,-1.25348 -1.3511,-1.72072 -2.4863,-1.11328 -1.0845,0.58057 -1.0704,2.01489 0.035,3.82812 0.9501,1.55837 2.3671,2.29102 4.4473,2.29102 1.7244,0 4.3086,-2.47906 4.3086,-4.13281 0,-2.30735 1.2691,-4.21845 3.1406,-5.05274 l 0,-4.88476 c -0.2537,1.07777 -0.7451,2.0901 -1.4062,2.83007 -1.0352,1.15869 -1.5277,1.36327 -3.2618,1.36328 -1.7543,0 -2.2228,-0.19894 -3.3203,-1.42773 -1.3819,-1.54674 -1.6932,-3.59319 -0.6758,-4.4375 0.8419,-0.69882 1.9835,-0.14543 2.2989,1.11133 0.5838,2.32556 3.2285,2.2137 3.2285,-0.13672 0,-5.53345 -8.5474,-6.13754 -9.4219,-0.66602 -0.7033,4.40172 -3.0394,6.38111 -6.3516,5.38868 -2.9125,-0.87256 -4.6218,-4.6714 -2.5917,-5.75782 1.0896,-0.58334 1.9426,-0.028 2.33,1.51563 0.3192,1.27209 1.3552,1.71642 2.5371,1.08398 1.3111,-0.7018 0.8101,-3.30224 -0.9453,-4.88476 -2.5746,-2.32093 -6.9559,-1.11175 -7.8672,2.16992 -0.2543,0.91601 -0.4575,2.00404 -0.4589,2.42187 0,0.4178 -0.5842,1.40453 -1.2872,2.19141 -1.0976,1.22825 -1.5642,1.42773 -3.3183,1.42773 -1.7541,0 -2.2267,-0.19894 -3.3242,-1.42773 -1.396,-1.5624 -1.6909,-3.59563 -0.6485,-4.46094 0.8471,-0.70283 2.3302,0.0973 2.5176,1.35742 0.3332,2.23974 2.9883,1.95658 2.9883,-0.31835 0,-5.56914 -8.5306,-6.20807 -9.4395,-0.70704 -0.6053,3.6632 -2.4039,5.77273 -4.9297,5.77735 -3.3682,0.006 -6.5021,-4.80837 -4.0019,-6.14649 1.0897,-0.58334 1.9466,-0.028 2.334,1.51563 0.4404,1.75419 2.5849,1.9236 3.1172,0.24609 0.7857,-2.47534 -1.7637,-5.25195 -4.8203,-5.25195 -2.5553,0 -4.4215,1.78374 -4.8497,4.63867 -0.573,3.82102 -3.7447,5.90351 -6.6816,4.38477 -1.6876,-0.8727 -2.709,-2.30794 -2.709,-3.8086 0,-2.41993 2.2072,-2.68032 3.0176,-0.35547 0.8562,2.45616 3.126,1.98833 3.1074,-0.64062 -0.021,-2.94076 -3.1465,-4.74897 -5.8691,-4.08008 -0.415,-0.2002 -1.1227,0.17712 -2.1856,1.12695 -0.9971,0.89108 -1.4171,1.71956 -1.6054,3.17774 -0.3252,2.51753 -1.5564,4.26574 -3.3321,4.73828 -2.6559,0.7067 -5.2612,-0.68154 -5.9375,-3.16797 -0.7976,-2.93159 1.6233,-4.0842 2.7774,-1.32226 0.5553,1.32919 0.8345,1.54234 1.8672,1.42382 0.889,-0.10187 1.2529,-0.41453 1.3593,-1.16601 0.49,-3.46042 -3.4805,-6.17336 -6.7558,-4.61914 -1.705,0.8091 -2.5579,2.16676 -2.9512,4.71289 -0.6203,4.01653 -5.0758,5.76342 -7.9375,3.11133 -1.9773,-1.83263 -1.9641,-4.80469 0.021,-4.80469 0.5116,0 1.0673,0.53572 1.4492,1.40234 0.763,1.73316 1.4065,2.01237 2.6484,1.14258 0.7414,-0.51961 0.8985,-0.93732 0.6797,-1.82812 -1.0434,-4.24584 -5.6077,-5.60025 -8.5,-2.52149 -0.562,0.59788 -1.105,1.95157 -1.3144,3.27734 -0.4202,2.65741 -1.3473,3.83805 -3.4903,4.42969 -1.236,0.34157 -1.8865,0.27506 -3.1113,-0.32422 -1.9554,-0.95673 -3.3723,-3.56411 -2.6582,-4.89843 0.7572,-1.41482 2.1538,-1.1263 2.8731,0.5957 0.3431,0.82123 0.8743,1.58522 1.1816,1.69531 0.9776,0.34985 2.0898,-0.55308 2.0898,-1.69336 0,-3.19424 -3.0938,-5.40454 -6.3203,-4.51367 -1.8738,0.51752 -2.8587,1.8761 -3.3808,4.66992 -0.6311,3.37875 -3.3149,5.21666 -6.4141,4.39258 -2.449,-0.65122 -4.0526,-4.31898 -2.4648,-5.63672 0.8921,-0.74041 2.0401,-0.0772 2.3847,1.38281 0.1907,0.8078 0.5366,1.05663 1.4922,1.05664 1.8595,0 2.3052,-1.05844 1.3028,-3.11132 -0.5476,-1.12176 -1.4084,-1.98739 -2.5059,-2.52344 -0.7497,-0.36576 -1.2046,-0.55364 -1.6563,-0.58203 l 0,0 z"
         style="fill:#000000;fill-opacity:1;stroke:none;stroke-opacity:0.6" />
    </g>
    <path
       sodipodi:nodetypes="cccc"
       inkscape:connector-curvature="0"
       id="path12270"
       d="m 840.87508,102.66466 64.32354,0 m 0,207.28191 -64.32354,0"
       style="opacity:1;fill:#0000ff;fill-opacity:0.66666667;stroke:#0000ff;stroke-width:0.35584915;stroke-linecap:round;stroke-linejoin:round;stroke-miterlimit:4;stroke-dasharray:2.13509481, 2.13509481;stroke-dashoffset:0;stroke-opacity:1" />
    <text
       xml:space="preserve"
       style="font-style:normal;font-variant:normal;font-weight:normal;font-stretch:normal;font-size:20.02631569px;line-height:125%;font-family:'Alegreya Sans';-inkscape-font-specification:'Alegreya Sans, Normal';text-align:start;letter-spacing:0px;word-spacing:0px;writing-mode:lr-tb;text-anchor:start;fill:#0000ff;fill-opacity:1;stroke:none;stroke-width:1px;stroke-linecap:butt;stroke-linejoin:miter;stroke-opacity:1"
       x="908.44543"
       y="109.63983"
       id="text12272"
       sodipodi:linespacing="125%"><tspan
         sodipodi:role="line"
         id="tspan12274"
         x="908.44543"
         y="109.63983">Perforation</tspan></text>
    <text
       sodipodi:linespacing="125%"
       id="text12276"
       y="314.19571"
       x="907.94037"
       style="font-style:normal;font-variant:normal;font-weight:normal;font-stretch:normal;font-size:20.02631569px;line-height:125%;font-family:'Alegreya Sans';-inkscape-font-specification:'Alegreya Sans, Normal';text-align:start;letter-spacing:0px;word-spacing:0px;writing-mode:lr-tb;text-anchor:start;fill:#0000ff;fill-opacity:1;stroke:none;stroke-width:1px;stroke-linecap:butt;stroke-linejoin:miter;stroke-opacity:1"
       xml:space="preserve"><tspan
         y="314.19571"
         x="907.94037"
         id="tspan12278"
         sodipodi:role="line">Perforation</tspan></text>
    <text
       xml:space="preserve"
       style="font-style:normal;font-variant:normal;font-weight:normal;font-stretch:normal;font-size:20.02631569px;line-height:125%;font-family:'Alegreya Sans';-inkscape-font-specification:'Alegreya Sans, Normal';text-align:start;letter-spacing:0px;word-spacing:0px;writing-mode:lr-tb;text-anchor:start;fill:#ff0000;fill-opacity:1;stroke:none;stroke-width:1px;stroke-linecap:butt;stroke-linejoin:miter;stroke-opacity:1"
       x="595.09149"
       y="384.10544"
       id="text12280"
       sodipodi:linespacing="125%"><tspan
         sodipodi:role="line"
         id="tspan12282"
         x="595.09149"
         y="384.10544">outline cut (don't print)</tspan></text>
    <text
       xml:space="preserve"
       style="font-style:normal;font-variant:normal;font-weight:normal;font-stretch:normal;font-size:20.02625084px;line-height:125%;font-family:GoodDog;-inkscape-font-specification:'GoodDog, Normal';text-align:start;letter-spacing:0px;word-spacing:0px;writing-mode:lr-tb;text-anchor:start;fill:#000000;fill-opacity:1;stroke:none;stroke-width:1px;stroke-linecap:butt;stroke-linejoin:miter;stroke-opacity:1"
       x="867.16992"
       y="225.04742"
       id="text12290"
       sodipodi:linespacing="125%"><tspan
         sodipodi:role="line"
         id="tspan12292"
         x="867.16992"
         y="225.04742">Text font: GoodDog</tspan></text>
    <text
       sodipodi:linespacing="125%"
       id="text12294"
       y="39.105438"
       x="605.09149"
       style="font-style:normal;font-variant:normal;font-weight:normal;font-stretch:normal;font-size:20.02631569px;line-height:125%;font-family:'Alegreya Sans';-inkscape-font-specification:'Alegreya Sans, Normal';text-align:start;letter-spacing:0px;word-spacing:0px;writing-mode:lr-tb;text-anchor:start;fill:#ff0000;fill-opacity:1;stroke:none;stroke-width:1px;stroke-linecap:butt;stroke-linejoin:miter;stroke-opacity:1"
       xml:space="preserve"><tspan
         y="39.105438"
         x="605.09149"
         id="tspan12296"
         sodipodi:role="line">outline cut (don't print)</tspan></text>
    <text
       xml:space="preserve"
       style="font-style:normal;font-variant:normal;font-weight:normal;font-stretch:normal;font-size:20.02631569px;line-height:125%;font-family:'Alegreya Sans';-inkscape-font-specification:'Alegreya Sans, Normal';text-align:start;letter-spacing:0px;word-spacing:0px;writing-mode:lr-tb;text-anchor:start;fill:#000000;fill-opacity:1;stroke:none;stroke-width:1px;stroke-linecap:butt;stroke-linejoin:miter;stroke-opacity:1"
       x="867.61554"
       y="174.69315"
       id="text12315"
       sodipodi:linespacing="125%"><tspan
         sodipodi:role="line"
         id="tspan12317"
         x="867.61554"
         y="174.69315">90.5x87.5mm</tspan><tspan
         sodipodi:role="line"
         x="867.61554"
         y="199.72604"
         id="tspan12319">Perforations 16mm from top and bottom edges</tspan></text>
  </g>
</svg>
